Coda-Caption-Bold.ufo
<glyph name="numbersign" format="1">
  <advance width="1699"/>
  <unicode hex="0023"/>
  <outline>
    <contour>
      <point x="220" y="0" type="line"/>
      <point x="611" y="0" type="line"/>
      <point x="675" y="421" type="line"/>
      <point x="917" y="421" type="line"/>
      <point x="853" y="0" type="line"/>
      <point x="1243" y="0" type="line"/>
      <point x="1306" y="422" type="line"/>
      <point x="1510" y="422" type="line"/>
      <point x="1536" y="601" type="line"/>
      <point x="1334" y="601" type="line"/>
      <point x="1391" y="983" type="line"/>
      <point x="1585" y="983" type="line"/>
      <point x="1613" y="1177" type="line"/>
      <point x="1423" y="1177" type="line"/>
      <point x="1478" y="1559" type="line"/>
      <point x="1090" y="1559" type="line"/>
      <point x="1032" y="1177" type="line"/>
      <point x="793" y="1177" type="line"/>
      <point x="849" y="1559" type="line"/>
      <point x="458" y="1559" type="line"/>
      <point x="401" y="1177" type="line"/>
      <point x="207" y="1177" type="line"/>
      <point x="179" y="983" type="line"/>
      <point x="368" y="983" type="line"/>
      <point x="312" y="601" type="line"/>
      <point x="128" y="601" type="line"/>
      <point x="101" y="421" type="line"/>
      <point x="283" y="421" type="line"/>
    </contour>
    <contour>
      <point x="703" y="601" type="line"/>
      <point x="761" y="983" type="line"/>
      <point x="1001" y="983" type="line"/>
      <point x="944" y="601" type="line"/>
    </contour>
  </outline>
</glyph>
<glyph name="percent" format="1">
  <advance width="2792"/>
  <unicode hex="0025"/>
  <outline>
    <contour>
      <point x="633" y="793" type="curve" smooth="yes"/>
      <point x="576" y="793"/>
      <point x="540" y="798"/>
      <point x="540" y="867" type="curve" smooth="yes"/>
      <point x="540" y="881"/>
      <point x="541" y="1257"/>
      <point x="541" y="1276" type="curve" smooth="yes"/>
      <point x="541" y="1354"/>
      <point x="577" y="1354"/>
      <point x="639" y="1354" type="curve" smooth="yes"/>
      <point x="704" y="1354"/>
      <point x="735" y="1353"/>
      <point x="735" y="1275" type="curve" smooth="yes"/>
      <point x="735" y="866" type="line" smooth="yes"/>
      <point x="735" y="798"/>
      <point x="701" y="793"/>
    </contour>
    <contour>
      <point x="637" y="606" type="curve" smooth="yes"/>
      <point x="872" y="606"/>
      <point x="1053" y="637"/>
      <point x="1053" y="918" type="curve" smooth="yes"/>
      <point x="1053" y="949"/>
      <point x="1053" y="1212"/>
      <point x="1052" y="1233" type="curve" smooth="yes"/>
      <point x="1047" y="1508"/>
      <point x="875" y="1542"/>
      <point x="636" y="1542" type="curve" smooth="yes"/>
      <point x="403" y="1542"/>
      <point x="222" y="1509"/>
      <point x="222" y="1231" type="curve" smooth="yes"/>
      <point x="222" y="1201"/>
      <point x="222" y="939"/>
      <point x="223" y="918" type="curve" smooth="yes"/>
      <point x="227" y="631"/>
      <point x="394" y="606"/>
    </contour>
    <contour>
      <point x="2151" y="330" type="curve" smooth="yes"/>
      <point x="2094" y="330"/>
      <point x="2059" y="335"/>
      <point x="2059" y="404" type="curve" smooth="yes"/>
      <point x="2059" y="813" type="line" smooth="yes"/>
      <point x="2059" y="891"/>
      <point x="2095" y="891"/>
      <point x="2157" y="891" type="curve" smooth="yes"/>
      <point x="2222" y="891"/>
      <point x="2253" y="890"/>
      <point x="2253" y="812" type="curve" smooth="yes"/>
      <point x="2253" y="403" type="line" smooth="yes"/>
      <point x="2253" y="335"/>
      <point x="2219" y="330"/>
    </contour>
    <contour>
      <point x="2155" y="142" type="curve" smooth="yes"/>
      <point x="2390" y="142"/>
      <point x="2572" y="181"/>
      <point x="2572" y="455" type="curve" smooth="yes"/>
      <point x="2572" y="484"/>
      <point x="2572" y="745"/>
      <point x="2571" y="766" type="curve" smooth="yes"/>
      <point x="2566" y="1045"/>
      <point x="2396" y="1079"/>
      <point x="2155" y="1079" type="curve" smooth="yes"/>
      <point x="1920" y="1079"/>
      <point x="1741" y="1046"/>
      <point x="1741" y="767" type="curve" smooth="yes"/>
      <point x="1741" y="737"/>
      <point x="1741" y="477"/>
      <point x="1742" y="456" type="curve" smooth="yes"/>
      <point x="1745" y="175"/>
      <point x="1913" y="142"/>
    </contour>
    <contour>
      <point x="1052" y="-25" type="line"/>
      <point x="1365" y="-25" type="line"/>
      <point x="1743" y="1612" type="line"/>
      <point x="1431" y="1612" type="line"/>
    </contour>
  </outline>
</glyph>
<glyph name="parenleft" format="1">
  <advance width="1086"/>
  <unicode hex="0028"/>
  <outline>
    <contour>
      <point x="874" y="-189" type="curve"/>
      <point x="879" y="41" type="line"/>
      <point x="639" y="55"/>
      <point x="548" y="396"/>
      <point x="548" y="793" type="curve" smooth="yes"/>
      <point x="548" y="1190"/>
      <point x="639" y="1543"/>
      <point x="879" y="1557" type="curve"/>
      <point x="874" y="1788" type="line"/>
      <point x="396" y="1776"/>
      <point x="218" y="1298"/>
      <point x="218" y="794" type="curve" smooth="yes"/>
      <point x="218" y="289"/>
      <point x="396" y="-178"/>
    </contour>
  </outline>
</glyph>
<glyph name="parenright" format="1">
  <advance width="1086"/>
  <unicode hex="0029"/>
  <outline>
    <contour>
      <point x="211" y="-189" type="line"/>
      <point x="689" y="-178"/>
      <point x="867" y="290"/>
      <point x="867" y="794" type="curve" smooth="yes"/>
      <point x="867" y="1298"/>
      <point x="689" y="1776"/>
      <point x="211" y="1788" type="curve"/>
      <point x="206" y="1557" type="line"/>
      <point x="446" y="1543"/>
      <point x="537" y="1190"/>
      <point x="537" y="793" type="curve" smooth="yes"/>
      <point x="537" y="396"/>
      <point x="446" y="55"/>
      <point x="206" y="41" type="curve"/>
    </contour>
  </outline>
</glyph>
<glyph name="plus" format="1">
  <advance width="1351"/>
  <unicode hex="002B"/>
  <outline>
    <contour>
      <point x="517" y="142" type="line"/>
      <point x="832" y="142" type="line"/>
      <point x="832" y="514" type="line"/>
      <point x="1177" y="514" type="line"/>
      <point x="1177" y="792" type="line"/>
      <point x="832" y="792" type="line"/>
      <point x="832" y="1167" type="line"/>
      <point x="517" y="1167" type="line"/>
      <point x="517" y="792" type="line"/>
      <point x="172" y="792" type="line"/>
      <point x="172" y="514" type="line"/>
      <point x="517" y="514" type="line"/>
    </contour>
  </outline>
</glyph>
<glyph name="comma" format="1">
  <advance width="844"/>
  <unicode hex="002C"/>
  <outline>
    <contour>
      <point x="290" y="-233" type="curve" smooth="yes"/>
      <point x="483" y="-233"/>
      <point x="606" y="-23"/>
      <point x="606" y="156" type="curve" smooth="yes"/>
      <point x="606" y="273"/>
      <point x="544" y="375"/>
      <point x="419" y="375" type="curve" smooth="yes"/>
      <point x="320" y="375"/>
      <point x="234" y="307"/>
      <point x="234" y="190" type="curve" smooth="yes"/>
      <point x="234" y="77"/>
      <point x="311" y="7"/>
      <point x="402" y="0" type="curve"/>
      <point x="398" y="-81"/>
      <point x="323" y="-134"/>
      <point x="240" y="-135" type="curve"/>
      <point x="240" y="-230" type="line"/>
      <point x="254" y="-232"/>
      <point x="270" y="-233"/>
    </contour>
  </outline>
</glyph>
<glyph name="hyphen" format="1">
  <advance width="1169"/>
  <unicode hex="002D"/>
  <outline>
    <contour>
      <point x="603" y="636" type="move" name="_mid"/>
    </contour>
    <contour>
      <point x="199" y="517" type="line"/>
      <point x="967" y="517" type="line"/>
      <point x="967" y="758" type="line"/>
      <point x="199" y="758" type="line"/>
    </contour>
  </outline>
</glyph>
<glyph name="period" format="1">
  <advance width="830"/>
  <unicode hex="002E"/>
  <outline>
    <contour>
      <point x="411" y="-36" type="curve" smooth="yes"/>
      <point x="502" y="-36"/>
      <point x="593" y="26"/>
      <point x="593" y="153" type="curve" smooth="yes"/>
      <point x="593" y="278"/>
      <point x="501" y="341"/>
      <point x="409" y="341" type="curve" smooth="yes"/>
      <point x="318" y="341"/>
      <point x="228" y="279"/>
      <point x="228" y="153" type="curve" smooth="yes"/>
      <point x="228" y="27"/>
      <point x="320" y="-36"/>
    </contour>
  </outline>
</glyph>
<glyph name="slash" format="1">
  <advance width="1064"/>
  <unicode hex="002F"/>
  <outline>
    <contour>
      <point x="187" y="-9" type="line"/>
      <point x="531" y="-9" type="line"/>
      <point x="891" y="1568" type="line"/>
      <point x="544" y="1568" type="line"/>
    </contour>
  </outline>
</glyph>
<glyph name="zero" format="1">
  <advance width="1454"/>
  <unicode hex="0030"/>
  <outline>
    <contour>
      <point x="727" y="201" type="curve" smooth="yes"/>
      <point x="657" y="201"/>
      <point x="571" y="217"/>
      <point x="568" y="256" type="curve" smooth="yes"/>
      <point x="565" y="304"/>
      <point x="565" y="726"/>
      <point x="565" y="777" type="curve" smooth="yes"/>
      <point x="565" y="828"/>
      <point x="566" y="1250"/>
      <point x="569" y="1298" type="curve" smooth="yes"/>
      <point x="571" y="1341"/>
      <point x="660" y="1358"/>
      <point x="727" y="1358" type="curve" smooth="yes"/>
      <point x="794" y="1358"/>
      <point x="883" y="1341"/>
      <point x="886" y="1298" type="curve" smooth="yes"/>
      <point x="888" y="1250"/>
      <point x="890" y="828"/>
      <point x="890" y="777" type="curve" smooth="yes"/>
      <point x="890" y="726"/>
      <point x="889" y="304"/>
      <point x="886" y="256" type="curve" smooth="yes"/>
      <point x="884" y="217"/>
      <point x="798" y="201"/>
    </contour>
    <contour>
      <point x="729" y="-31" type="curve" smooth="yes"/>
      <point x="1103" y="-31"/>
      <point x="1325" y="60"/>
      <point x="1325" y="496" type="curve" smooth="yes"/>
      <point x="1325" y="1102" type="line" smooth="yes"/>
      <point x="1325" y="1501"/>
      <point x="1088" y="1590"/>
      <point x="729" y="1590" type="curve" smooth="yes"/>
      <point x="368" y="1590"/>
      <point x="130" y="1501"/>
      <point x="130" y="1084" type="curve" smooth="yes"/>
      <point x="130" y="473" type="line" smooth="yes"/>
      <point x="130" y="61"/>
      <point x="359" y="-31"/>
    </contour>
  </outline>
</glyph>
<glyph name="one" format="1">
  <advance width="1067"/>
  <unicode hex="0031"/>
  <outline>
    <contour>
      <point x="355" y="0" type="line"/>
      <point x="817" y="0" type="line"/>
      <point x="817" y="1559" type="line"/>
      <point x="449" y="1559" type="line"/>
      <point x="378" y="1492"/>
      <point x="272" y="1456"/>
      <point x="146" y="1454" type="curve"/>
      <point x="146" y="1278" type="line"/>
      <point x="355" y="1278" type="line"/>
    </contour>
  </outline>
</glyph>
<glyph name="three" format="1">
  <advance width="1450"/>
  <unicode hex="0033"/>
  <outline>
    <contour>
      <point x="721" y="-31" type="curve" smooth="yes"/>
      <point x="1110" y="-31"/>
      <point x="1318" y="91"/>
      <point x="1318" y="439" type="curve" smooth="yes"/>
      <point x="1318" y="662"/>
      <point x="1244" y="760"/>
      <point x="1126" y="803" type="curve"/>
      <point x="1231" y="835"/>
      <point x="1314" y="903"/>
      <point x="1314" y="1150" type="curve" smooth="yes"/>
      <point x="1314" y="1465"/>
      <point x="1122" y="1589"/>
      <point x="731" y="1589" type="curve" smooth="yes"/>
      <point x="322" y="1589"/>
      <point x="147" y="1476"/>
      <point x="143" y="1140" type="curve" smooth="yes"/>
      <point x="142" y="1082" type="line"/>
      <point x="566" y="1065" type="line"/>
      <point x="566" y="1106"/>
      <point x="569" y="1343"/>
      <point x="574" y="1348" type="curve" smooth="yes"/>
      <point x="586" y="1361"/>
      <point x="683" y="1363"/>
      <point x="730" y="1363" type="curve" smooth="yes"/>
      <point x="813" y="1363"/>
      <point x="878" y="1347"/>
      <point x="878" y="1286" type="curve" smooth="yes"/>
      <point x="878" y="1215"/>
      <point x="877" y="900"/>
      <point x="859" y="900" type="curve" smooth="yes"/>
      <point x="566" y="900" type="line"/>
      <point x="569" y="704" type="line"/>
      <point x="861" y="703" type="line" smooth="yes"/>
      <point x="877" y="703"/>
      <point x="880" y="373"/>
      <point x="880" y="298" type="curve" smooth="yes"/>
      <point x="880" y="216"/>
      <point x="817" y="197"/>
      <point x="720" y="197" type="curve" smooth="yes"/>
      <point x="671" y="197"/>
      <point x="580" y="199"/>
      <point x="569" y="214" type="curve" smooth="yes"/>
      <point x="559" y="225"/>
      <point x="560" y="492"/>
      <point x="560" y="524" type="curve"/>
      <point x="139" y="500" type="line"/>
      <point x="139" y="431" type="line" smooth="yes"/>
      <point x="138" y="92"/>
      <point x="302" y="-31"/>
    </contour>
  </outline>
</glyph>
<glyph name="four" format="1">
  <advance width="1450"/>
  <unicode hex="0034"/>
  <outline>
    <contour>
      <point x="470" y="1559" type="line"/>
      <point x="125" y="617" type="line"/>
      <point x="125" y="291" type="line"/>
      <point x="880" y="291" type="line"/>
      <point x="880" y="0" type="line"/>
      <point x="1281" y="0" type="line"/>
      <point x="1281" y="965" type="line"/>
      <point x="880" y="965" type="line"/>
      <point x="880" y="575" type="line"/>
      <point x="571" y="575" type="line"/>
      <point x="604" y="676" type="line"/>
      <point x="914" y="1559" type="line"/>
    </contour>
  </outline>
</glyph>
<glyph name="five" format="1">
  <advance width="1450"/>
  <unicode hex="0035"/>
  <outline>
    <contour>
      <point x="753" y="-31" type="curve" smooth="yes"/>
      <point x="1195" y="-31"/>
      <point x="1354" y="79"/>
      <point x="1354" y="521" type="curve" smooth="yes"/>
      <point x="1354" y="876"/>
      <point x="1251" y="1053"/>
      <point x="908" y="1053" type="curve" smooth="yes"/>
      <point x="725" y="1053"/>
      <point x="646" y="999"/>
      <point x="593" y="931" type="curve"/>
      <point x="604" y="1312" type="line"/>
      <point x="1235" y="1312" type="line"/>
      <point x="1235" y="1560" type="line"/>
      <point x="227" y="1560" type="line"/>
      <point x="192" y="657" type="line"/>
      <point x="603" y="653" type="line"/>
      <point x="607" y="673"/>
      <point x="615" y="806"/>
      <point x="626" y="814" type="curve" smooth="yes"/>
      <point x="643" y="824"/>
      <point x="727" y="825"/>
      <point x="757" y="825" type="curve" smooth="yes"/>
      <point x="857" y="825"/>
      <point x="918" y="811"/>
      <point x="918" y="732" type="curve" smooth="yes"/>
      <point x="918" y="714"/>
      <point x="919" y="300"/>
      <point x="919" y="285" type="curve" smooth="yes"/>
      <point x="919" y="234"/>
      <point x="848" y="201"/>
      <point x="749" y="201" type="curve" smooth="yes"/>
      <point x="675" y="201"/>
      <point x="600" y="209"/>
      <point x="594" y="258" type="curve" smooth="yes"/>
      <point x="593" y="265"/>
      <point x="592" y="431"/>
      <point x="591" y="440" type="curve"/>
      <point x="177" y="433" type="line"/>
      <point x="177" y="425"/>
      <point x="175" y="357"/>
      <point x="175" y="350" type="curve" smooth="yes"/>
      <point x="173" y="58"/>
      <point x="345" y="-31"/>
    </contour>
  </outline>
</glyph>
<glyph name="seven" format="1">
  <advance width="1450"/>
  <unicode hex="0037"/>
  <outline>
    <contour>
      <point x="391" y="0" type="line"/>
      <point x="863" y="0" type="line"/>
      <point x="1305" y="1307" type="line"/>
      <point x="1305" y="1559" type="line"/>
      <point x="175" y="1559" type="line"/>
      <point x="175" y="1313" type="line"/>
      <point x="833" y="1313" type="line"/>
    </contour>
  </outline>
</glyph>
<glyph name="greater" format="1">
  <advance width="1240"/>
  <unicode hex="003E"/>
  <outline>
    <contour>
      <point x="230" y="80" type="line"/>
      <point x="1045" y="503" type="line"/>
      <point x="1045" y="961" type="line"/>
      <point x="230" y="1391" type="line"/>
      <point x="230" y="977" type="line"/>
      <point x="803" y="737" type="line"/>
      <point x="230" y="489" type="line"/>
    </contour>
  </outline>
</glyph>
<glyph name="question" format="1">
  <advance width="997"/>
  <unicode hex="003F"/>
  <outline>
    <contour>
      <point x="396" y="487" type="curve" smooth="yes"/>
      <point x="427" y="487"/>
      <point x="452" y="502"/>
      <point x="455" y="538" type="curve" smooth="yes"/>
      <point x="465" y="637"/>
      <point x="513" y="718"/>
      <point x="578" y="800" type="curve" smooth="yes"/>
      <point x="706" y="964"/>
      <point x="877" y="1078"/>
      <point x="877" y="1269" type="curve" smooth="yes"/>
      <point x="877" y="1455"/>
      <point x="764" y="1595"/>
      <point x="462" y="1595" type="curve" smooth="yes"/>
      <point x="371" y="1595"/>
      <point x="263" y="1573"/>
      <point x="130" y="1526" type="curve"/>
      <point x="161" y="1242" type="line"/>
      <point x="254" y="1274"/>
      <point x="318" y="1287"/>
      <point x="366" y="1287" type="curve" smooth="yes"/>
      <point x="475" y="1287"/>
      <point x="521" y="1228"/>
      <point x="521" y="1150" type="curve" smooth="yes"/>
      <point x="521" y="1078"/>
      <point x="482" y="994"/>
      <point x="437" y="900" type="curve"/>
      <point x="378" y="791"/>
      <point x="339" y="692"/>
      <point x="339" y="548" type="curve" smooth="yes"/>
      <point x="339" y="512"/>
      <point x="357" y="487"/>
    </contour>
    <contour>
      <point x="396" y="-36" type="curve" smooth="yes"/>
      <point x="487" y="-36"/>
      <point x="577" y="26"/>
      <point x="577" y="153" type="curve" smooth="yes"/>
      <point x="577" y="278"/>
      <point x="485" y="341"/>
      <point x="394" y="341" type="curve" smooth="yes"/>
      <point x="303" y="341"/>
      <point x="213" y="279"/>
      <point x="213" y="153" type="curve" smooth="yes"/>
      <point x="213" y="27"/>
      <point x="304" y="-36"/>
    </contour>
  </outline>
</glyph>
<glyph name="D" format="1">
  <advance width="1633"/>
  <unicode hex="0044"/>
  <outline>
    <contour>
      <point x="437" y="792" type="move" name="mid"/>
    </contour>
    <contour>
      <point x="823" y="0" type="move" name="bot"/>
    </contour>
    <contour>
      <point x="823" y="1559" type="move" name="top"/>
    </contour>
    <contour>
      <point x="185" y="1559" type="line"/>
      <point x="185" y="0" type="line"/>
      <point x="807" y="0" type="line" smooth="yes"/>
      <point x="1233" y="0"/>
      <point x="1471" y="26"/>
      <point x="1474" y="493" type="curve"/>
      <point x="1474" y="1085" type="line" smooth="yes"/>
      <point x="1474" y="1488"/>
      <point x="1234" y="1559"/>
      <point x="860" y="1559" type="curve" smooth="yes"/>
    </contour>
    <contour>
      <point x="1007" y="923" type="curve" smooth="yes"/>
      <point x="1007" y="567" type="line" smooth="yes"/>
      <point x="1007" y="414"/>
      <point x="983" y="207"/>
      <point x="850" y="207" type="curve" smooth="yes"/>
      <point x="654" y="207" type="line"/>
      <point x="654" y="1351" type="line"/>
      <point x="839" y="1351" type="line" smooth="yes"/>
      <point x="1007" y="1351"/>
      <point x="1007" y="1054"/>
    </contour>
  </outline>
</glyph>
<glyph name="G" format="1">
  <advance width="1590"/>
  <unicode hex="0047"/>
  <outline>
    <contour>
      <point x="803" y="0" type="move" name="bot"/>
    </contour>
    <contour>
      <point x="803" y="1559" type="move" name="top"/>
    </contour>
    <contour>
      <point x="172" y="1222" type="curve"/>
      <point x="164" y="1183"/>
      <point x="162" y="845"/>
      <point x="162" y="777" type="curve" smooth="yes"/>
      <point x="162" y="713"/>
      <point x="163" y="378"/>
      <point x="169" y="340" type="curve"/>
      <point x="183" y="22"/>
      <point x="371" y="-27"/>
      <point x="830" y="-27" type="curve" smooth="yes"/>
      <point x="1035" y="-27"/>
      <point x="1339" y="5"/>
      <point x="1449" y="102" type="curve"/>
      <point x="1449" y="761" type="line"/>
      <point x="852" y="761" type="line"/>
      <point x="858" y="598" type="line"/>
      <point x="1062" y="598" type="line"/>
      <point x="1062" y="215" type="line"/>
      <point x="1053" y="204"/>
      <point x="915" y="199"/>
      <point x="838" y="199" type="curve" smooth="yes"/>
      <point x="729" y="199"/>
      <point x="636" y="212"/>
      <point x="633" y="275" type="curve" smooth="yes"/>
      <point x="631" y="321"/>
      <point x="630" y="740"/>
      <point x="630" y="789" type="curve" smooth="yes"/>
      <point x="630" y="837"/>
      <point x="630" y="1255"/>
      <point x="633" y="1302" type="curve" smooth="yes"/>
      <point x="636" y="1345"/>
      <point x="712" y="1359"/>
      <point x="804" y="1359" type="curve" smooth="yes"/>
      <point x="888" y="1359"/>
      <point x="976" y="1355"/>
      <point x="977" y="1324" type="curve" smooth="yes"/>
      <point x="980" y="1007" type="line"/>
      <point x="1440" y="1032" type="line"/>
      <point x="1441" y="1037"/>
      <point x="1441" y="1194"/>
      <point x="1441" y="1199" type="curve" smooth="yes"/>
      <point x="1441" y="1563"/>
      <point x="1080" y="1595"/>
      <point x="814" y="1595" type="curve" smooth="yes"/>
      <point x="493" y="1595"/>
      <point x="190" y="1547"/>
    </contour>
  </outline>
</glyph>
<glyph name="K" format="1">
  <advance width="1625"/>
  <unicode hex="004B"/>
  <outline>
    <contour>
      <point x="828" y="0" type="move" name="bot"/>
    </contour>
    <contour>
      <point x="828" y="1559" type="move" name="top"/>
    </contour>
    <contour>
      <point x="1044" y="1559" type="line"/>
      <point x="733" y="963" type="line"/>
      <point x="652" y="804" type="line"/>
      <point x="653" y="986" type="line"/>
      <point x="653" y="1559" type="line"/>
      <point x="185" y="1559" type="line"/>
      <point x="185" y="0" type="line"/>
      <point x="653" y="0" type="line"/>
      <point x="653" y="573" type="line"/>
      <point x="719" y="691" type="line"/>
      <point x="1077" y="0" type="line"/>
      <point x="1588" y="0" type="line"/>
      <point x="1124" y="820" type="line"/>
      <point x="1534" y="1559" type="line"/>
    </contour>
  </outline>
</glyph>
<glyph name="L" format="1">
  <advance width="1169"/>
  <unicode hex="004C"/>
  <outline>
    <contour>
      <point x="599" y="0" type="move" name="bot"/>
    </contour>
    <contour>
      <point x="487" y="1231" type="move" name="caron.alt"/>
    </contour>
    <contour>
      <point x="518" y="1559" type="move" name="top"/>
    </contour>
    <contour>
      <point x="185" y="1559" type="line"/>
      <point x="185" y="0" type="line"/>
      <point x="1066" y="0" type="line"/>
      <point x="1073" y="211" type="line"/>
      <point x="653" y="211" type="line"/>
      <point x="653" y="1559" type="line"/>
    </contour>
  </outline>
</glyph>
<glyph name="N" format="1">
  <advance width="1663"/>
  <unicode hex="004E"/>
  <outline>
    <contour>
      <point x="832" y="0" type="move" name="bot"/>
    </contour>
    <contour>
      <point x="839" y="1559" type="move" name="top"/>
    </contour>
    <contour>
      <point x="1124" y="1559" type="line"/>
      <point x="1124" y="651" type="line"/>
      <point x="596" y="1559" type="line"/>
      <point x="185" y="1559" type="line"/>
      <point x="185" y="0" type="line"/>
      <point x="542" y="0" type="line"/>
      <point x="542" y="869" type="line"/>
      <point x="1050" y="0" type="line"/>
      <point x="1478" y="0" type="line"/>
      <point x="1478" y="1559" type="line"/>
    </contour>
  </outline>
</glyph>
<glyph name="P" format="1">
  <advance width="1555"/>
  <unicode hex="0050"/>
  <outline>
    <contour>
      <point x="788" y="0" type="move" name="bot"/>
    </contour>
    <contour>
      <point x="788" y="1559" type="move" name="top"/>
    </contour>
    <contour>
      <point x="185" y="0" type="line"/>
      <point x="653" y="0" type="line"/>
      <point x="653" y="442" type="line"/>
      <point x="888" y="442" type="line" smooth="yes"/>
      <point x="1176" y="442"/>
      <point x="1437" y="477"/>
      <point x="1439" y="856" type="curve" smooth="yes"/>
      <point x="1439" y="1136" type="line" smooth="yes"/>
      <point x="1439" y="1510"/>
      <point x="1196" y="1559"/>
      <point x="867" y="1559" type="curve" smooth="yes"/>
      <point x="185" y="1559" type="line"/>
    </contour>
    <contour>
      <point x="652" y="643" type="line"/>
      <point x="652" y="1355" type="line"/>
      <point x="843" y="1355" type="line" smooth="yes"/>
      <point x="866" y="1355"/>
      <point x="939" y="1352"/>
      <point x="949" y="1344" type="curve" smooth="yes"/>
      <point x="967" y="1330"/>
      <point x="970" y="1059"/>
      <point x="971" y="1002" type="curve" smooth="yes"/>
      <point x="971" y="949"/>
      <point x="971" y="673"/>
      <point x="947" y="656" type="curve" smooth="yes"/>
      <point x="935" y="647"/>
      <point x="859" y="643"/>
      <point x="830" y="643" type="curve" smooth="yes"/>
    </contour>
  </outline>
</glyph>
<glyph name="Q" format="1">
  <advance width="1629"/>
  <unicode hex="0051"/>
  <outline>
    <component base="O"/>
    <contour>
      <point x="752" y="66" type="line"/>
      <point x="1067" y="-405" type="line"/>
      <point x="1327" y="-258" type="line"/>
      <point x="1093" y="108" type="line"/>
    </contour>
  </outline>
</glyph>
<glyph name="S" format="1">
  <advance width="1548"/>
  <unicode hex="0053"/>
  <outline>
    <contour>
      <point x="765" y="0" type="move" name="bot"/>
    </contour>
    <contour>
      <point x="765" y="1559" type="move" name="top"/>
    </contour>
    <contour>
      <point x="770" y="-34" type="curve" smooth="yes"/>
      <point x="1247" y="-34"/>
      <point x="1394" y="56"/>
      <point x="1394" y="506" type="curve" smooth="yes"/>
      <point x="1394" y="840"/>
      <point x="1211" y="924"/>
      <point x="961" y="971" type="curve" smooth="yes"/>
      <point x="733" y="1012" type="line" smooth="yes"/>
      <point x="636" y="1030"/>
      <point x="623" y="1044"/>
      <point x="616" y="1077" type="curve"/>
      <point x="606" y="1087"/>
      <point x="602" y="1244"/>
      <point x="602" y="1267" type="curve" smooth="yes"/>
      <point x="602" y="1340"/>
      <point x="670" y="1353"/>
      <point x="768" y="1353" type="curve" smooth="yes"/>
      <point x="817" y="1353"/>
      <point x="896" y="1350"/>
      <point x="907" y="1340" type="curve" smooth="yes"/>
      <point x="918" y="1329"/>
      <point x="917" y="1193"/>
      <point x="920" y="1163" type="curve"/>
      <point x="1334" y="1177" type="line"/>
      <point x="1334" y="1538"/>
      <point x="1154" y="1594"/>
      <point x="748" y="1594" type="curve" smooth="yes"/>
      <point x="333" y="1594"/>
      <point x="156" y="1513"/>
      <point x="156" y="1101" type="curve" smooth="yes"/>
      <point x="156" y="833"/>
      <point x="261" y="733"/>
      <point x="494" y="678" type="curve" smooth="yes"/>
      <point x="769" y="616" type="line"/>
      <point x="843" y="597"/>
      <point x="901" y="582"/>
      <point x="901" y="547" type="curve"/>
      <point x="922" y="543"/>
      <point x="925" y="349"/>
      <point x="926" y="292" type="curve" smooth="yes"/>
      <point x="926" y="217"/>
      <point x="858" y="203"/>
      <point x="762" y="203" type="curve" smooth="yes"/>
      <point x="705" y="203"/>
      <point x="623" y="207"/>
      <point x="610" y="221" type="curve" smooth="yes"/>
      <point x="598" y="234"/>
      <point x="599" y="424"/>
      <point x="594" y="461" type="curve"/>
      <point x="153" y="451" type="line"/>
      <point x="158" y="64"/>
      <point x="290" y="-34"/>
    </contour>
  </outline>
</glyph>
<glyph name="V" format="1">
  <advance width="1522"/>
  <unicode hex="0056"/>
  <outline>
    <contour>
      <point x="989" y="1559" type="line"/>
      <point x="765" y="361" type="line"/>
      <point x="757" y="361" type="line"/>
      <point x="525" y="1559" type="line"/>
      <point x="62" y="1559" type="line"/>
      <point x="443" y="0" type="line"/>
      <point x="1071" y="0" type="line"/>
      <point x="1454" y="1559" type="line"/>
    </contour>
  </outline>
</glyph>
<glyph name="W" format="1">
  <advance width="2009"/>
  <unicode hex="0057"/>
  <outline>
    <contour>
      <point x="1001" y="0" type="move" name="bot"/>
    </contour>
    <contour>
      <point x="1001" y="1559" type="move" name="top"/>
    </contour>
    <contour>
      <point x="1548" y="1559" type="line"/>
      <point x="1401" y="518" type="line"/>
      <point x="1387" y="517" type="line"/>
      <point x="1202" y="1559" type="line"/>
      <point x="818" y="1559" type="line"/>
      <point x="634" y="514" type="line"/>
      <point x="623" y="514" type="line"/>
      <point x="495" y="1559" type="line"/>
      <point x="54" y="1559" type="line"/>
      <point x="300" y="0" type="line"/>
      <point x="784" y="0" type="line"/>
      <point x="989" y="1007" type="line"/>
      <point x="1001" y="1007" type="line"/>
      <point x="1198" y="0" type="line"/>
      <point x="1696" y="0" type="line"/>
      <point x="1950" y="1559" type="line"/>
    </contour>
  </outline>
</glyph>
<glyph name="X" format="1">
  <advance width="1506"/>
  <unicode hex="0058"/>
  <outline>
    <contour>
      <point x="1033" y="1559" type="line"/>
      <point x="681" y="937" type="line"/>
      <point x="544" y="892" type="line"/>
      <point x="20" y="0" type="line"/>
      <point x="456" y="0" type="line"/>
      <point x="836" y="642" type="line"/>
      <point x="984" y="696" type="line"/>
      <point x="1470" y="1559" type="line"/>
    </contour>
    <contour>
      <point x="75" y="1559" type="line"/>
      <point x="1027" y="0" type="line"/>
      <point x="1466" y="0" type="line"/>
      <point x="510" y="1559" type="line"/>
    </contour>
  </outline>
</glyph>
<glyph name="bracketleft" format="1">
  <advance width="1114"/>
  <unicode hex="005B"/>
  <outline>
    <contour>
      <point x="227" y="1757" type="line"/>
      <point x="227" y="-303" type="line"/>
      <point x="1022" y="-303" type="line"/>
      <point x="1022" y="-92" type="line"/>
      <point x="710" y="-92" type="line"/>
      <point x="710" y="1547" type="line"/>
      <point x="1022" y="1547" type="line"/>
      <point x="1022" y="1757" type="line"/>
    </contour>
  </outline>
</glyph>
<glyph name="bracketright" format="1">
  <advance width="1315"/>
  <unicode hex="005D"/>
  <outline>
    <contour>
      <point x="294" y="1757" type="line"/>
      <point x="294" y="1547" type="line"/>
      <point x="605" y="1547" type="line"/>
      <point x="605" y="-92" type="line"/>
      <point x="294" y="-92" type="line"/>
      <point x="294" y="-303" type="line"/>
      <point x="1089" y="-303" type="line"/>
      <point x="1089" y="1757" type="line"/>
    </contour>
  </outline>
</glyph>
<glyph name="asciicircum" format="1">
  <advance width="1241"/>
  <unicode hex="005E"/>
  <outline>
    <contour>
      <point x="619" y="1547" type="curve" smooth="yes"/>
      <point x="539" y="1547"/>
      <point x="453" y="1521"/>
      <point x="413" y="1434" type="curve" smooth="yes"/>
      <point x="56" y="672" type="line" smooth="yes"/>
      <point x="0" y="553"/>
      <point x="172" y="452"/>
      <point x="248" y="580" type="curve" smooth="yes"/>
      <point x="619" y="1201" type="line"/>
      <point x="990" y="580" type="line" smooth="yes"/>
      <point x="1066" y="452"/>
      <point x="1238" y="553"/>
      <point x="1182" y="672" type="curve" smooth="yes"/>
      <point x="825" y="1434" type="line" smooth="yes"/>
      <point x="785" y="1521"/>
      <point x="699" y="1547"/>
    </contour>
  </outline>
</glyph>
<glyph name="grave" format="1">
  <advance width="1080"/>
  <unicode hex="0060"/>
  <outline>
    <contour>
      <point x="727" y="1231" type="move" name="_top"/>
    </contour>
    <contour>
      <point x="271" y="1746" type="curve" smooth="yes"/>
      <point x="271" y="1690"/>
      <point x="302" y="1629"/>
      <point x="372" y="1590" type="curve" smooth="yes"/>
      <point x="449" y="1547"/>
      <point x="764" y="1453"/>
      <point x="900" y="1412" type="curve" smooth="yes"/>
      <point x="922" y="1404"/>
      <point x="943" y="1408"/>
      <point x="956" y="1418" type="curve" smooth="yes"/>
      <point x="974" y="1433"/>
      <point x="976" y="1461"/>
      <point x="946" y="1488" type="curve" smooth="yes"/>
      <point x="838" y="1586"/>
      <point x="612" y="1812"/>
      <point x="532" y="1861" type="curve" smooth="yes"/>
      <point x="494" y="1885"/>
      <point x="457" y="1897"/>
      <point x="421" y="1897" type="curve" smooth="yes"/>
      <point x="331" y="1897"/>
      <point x="271" y="1825"/>
    </contour>
  </outline>
</glyph>
<glyph name="a" format="1">
  <advance width="1435"/>
  <unicode hex="0061"/>
  <outline>
    <contour>
      <point x="714" y="0" type="move" name="bot"/>
    </contour>
    <contour>
      <point x="1079" y="0" type="move" name="ogonek"/>
    </contour>
    <contour>
      <point x="705" y="1231" type="move" name="top"/>
    </contour>
    <contour>
      <point x="175" y="961" type="curve" smooth="yes"/>
      <point x="175" y="931"/>
      <point x="178" y="901"/>
      <point x="183" y="873" type="curve"/>
      <point x="582" y="884" type="line"/>
      <point x="582" y="895"/>
      <point x="582" y="1031"/>
      <point x="583" y="1038" type="curve" smooth="yes"/>
      <point x="587" y="1061"/>
      <point x="646" y="1067"/>
      <point x="708" y="1067" type="curve" smooth="yes"/>
      <point x="764" y="1067"/>
      <point x="835" y="1060"/>
      <point x="835" y="1036" type="curve" smooth="yes"/>
      <point x="835" y="722" type="line"/>
      <point x="807" y="722"/>
      <point x="612" y="703"/>
      <point x="589" y="701" type="curve" smooth="yes"/>
      <point x="297" y="674"/>
      <point x="130" y="630"/>
      <point x="130" y="369" type="curve" smooth="yes"/>
      <point x="130" y="93"/>
      <point x="253" y="-21"/>
      <point x="525" y="-21" type="curve" smooth="yes"/>
      <point x="696" y="-21"/>
      <point x="798" y="28"/>
      <point x="853" y="145" type="curve"/>
      <point x="901" y="1" type="line"/>
      <point x="1278" y="1" type="line"/>
      <point x="1278" y="875" type="line" smooth="yes"/>
      <point x="1278" y="1213"/>
      <point x="1021" y="1252"/>
      <point x="712" y="1252" type="curve" smooth="yes"/>
      <point x="476" y="1252"/>
      <point x="175" y="1236"/>
    </contour>
    <contour>
      <point x="835" y="243" type="line" smooth="yes"/>
      <point x="835" y="205"/>
      <point x="757" y="177"/>
      <point x="680" y="177" type="curve" smooth="yes"/>
      <point x="631" y="177"/>
      <point x="567" y="185"/>
      <point x="565" y="226" type="curve" smooth="yes"/>
      <point x="565" y="520" type="line" smooth="yes"/>
      <point x="565" y="551"/>
      <point x="698" y="585"/>
      <point x="835" y="585" type="curve"/>
    </contour>
  </outline>
</glyph>
<glyph name="e" format="1">
  <advance width="1438"/>
  <unicode hex="0065"/>
  <outline>
    <contour>
      <point x="714" y="0" type="move" name="bot"/>
    </contour>
    <contour>
      <point x="821" y="0" type="move" name="ogonek"/>
    </contour>
    <contour>
      <point x="707" y="1231" type="move" name="top"/>
    </contour>
    <contour>
      <point x="725" y="-20" type="curve" smooth="yes"/>
      <point x="1109" y="-20"/>
      <point x="1295" y="57"/>
      <point x="1297" y="331" type="curve" smooth="yes"/>
      <point x="1297" y="352"/>
      <point x="1295" y="405"/>
      <point x="1292" y="430" type="curve"/>
      <point x="863" y="432" type="line"/>
      <point x="859" y="203" type="line" smooth="yes"/>
      <point x="858" y="183"/>
      <point x="786" y="173"/>
      <point x="727" y="173" type="curve" smooth="yes"/>
      <point x="659" y="173"/>
      <point x="583" y="180"/>
      <point x="582" y="210" type="curve" smooth="yes"/>
      <point x="579" y="246"/>
      <point x="579" y="549"/>
      <point x="579" y="586" type="curve"/>
      <point x="1300" y="586" type="line"/>
      <point x="1302" y="844" type="line"/>
      <point x="1300" y="1217"/>
      <point x="1043" y="1256"/>
      <point x="721" y="1256" type="curve" smooth="yes"/>
      <point x="393" y="1256"/>
      <point x="135" y="1213"/>
      <point x="135" y="831" type="curve" smooth="yes"/>
      <point x="135" y="390" type="line" smooth="yes"/>
      <point x="135" y="18"/>
      <point x="396" y="-20"/>
    </contour>
    <contour>
      <point x="579" y="736" type="line"/>
      <point x="580" y="761"/>
      <point x="579" y="1011"/>
      <point x="585" y="1034" type="curve" smooth="yes"/>
      <point x="592" y="1060"/>
      <point x="655" y="1066"/>
      <point x="722" y="1066" type="curve" smooth="yes"/>
      <point x="779" y="1066"/>
      <point x="853" y="1059"/>
      <point x="855" y="1032" type="curve" smooth="yes"/>
      <point x="857" y="1006"/>
      <point x="858" y="763"/>
      <point x="859" y="736" type="curve"/>
    </contour>
  </outline>
</glyph>
<glyph name="f" format="1">
  <advance width="1060"/>
  <unicode hex="0066"/>
  <outline>
    <contour>
      <point x="532" y="1323" type="move" name="top"/>
    </contour>
    <contour>
      <point x="274" y="1231" type="curve"/>
      <point x="93" y="1231" type="line"/>
      <point x="93" y="1059" type="line"/>
      <point x="274" y="1059" type="line"/>
      <point x="274" y="0" type="line"/>
      <point x="718" y="0" type="line"/>
      <point x="718" y="1059" type="line"/>
      <point x="992" y="1059" type="line"/>
      <point x="992" y="1231" type="line"/>
      <point x="718" y="1231" type="line"/>
      <point x="718" y="1251"/>
      <point x="717" y="1383"/>
      <point x="717" y="1395" type="curve" smooth="yes"/>
      <point x="717" y="1437"/>
      <point x="779" y="1439"/>
      <point x="802" y="1439" type="curve" smooth="yes"/>
      <point x="821" y="1439"/>
      <point x="976" y="1439"/>
      <point x="988" y="1438" type="curve"/>
      <point x="988" y="1622" type="line"/>
      <point x="889" y="1650"/>
      <point x="787" y="1660"/>
      <point x="689" y="1660" type="curve" smooth="yes"/>
      <point x="397" y="1660"/>
      <point x="274" y="1553"/>
    </contour>
  </outline>
</glyph>
<glyph name="h" format="1">
  <advance width="1489"/>
  <unicode hex="0068"/>
  <outline>
    <contour>
      <point x="741" y="616" type="move" name="center"/>
    </contour>
    <contour>
      <point x="742" y="1231" type="move" name="mid"/>
    </contour>
    <contour>
      <point x="742" y="0" type="move" name="bot"/>
    </contour>
    <contour>
      <point x="950" y="1467" type="move" name="top"/>
    </contour>
    <contour>
      <point x="170" y="1600" type="line"/>
      <point x="170" y="0" type="line"/>
      <point x="614" y="0" type="line"/>
      <point x="614" y="1026" type="line" smooth="yes"/>
      <point x="614" y="1051"/>
      <point x="714" y="1062"/>
      <point x="748" y="1062" type="curve" smooth="yes"/>
      <point x="831" y="1062"/>
      <point x="888" y="1052"/>
      <point x="888" y="952" type="curve" smooth="yes"/>
      <point x="888" y="0" type="line"/>
      <point x="1331" y="0" type="line"/>
      <point x="1332" y="870" type="line" smooth="yes"/>
      <point x="1332" y="1122"/>
      <point x="1225" y="1252"/>
      <point x="927" y="1252" type="curve" smooth="yes"/>
      <point x="789" y="1252"/>
      <point x="668" y="1217"/>
      <point x="614" y="1140" type="curve"/>
      <point x="614" y="1600" type="line"/>
    </contour>
  </outline>
</glyph>
<glyph name="i" format="1">
  <advance width="841"/>
  <unicode hex="0069"/>
  <outline>
    <component base="dotaccent" xOffset="-89"/>
    <component base="dotlessi" xOffset="8"/>
    <contour>
      <point x="248" y="0" type="move" name="ogonek"/>
    </contour>
  </outline>
</glyph>
<glyph name="k" format="1">
  <advance width="1445"/>
  <unicode hex="006B"/>
  <outline>
    <contour>
      <point x="733" y="0" type="move" name="bottom"/>
    </contour>
    <contour>
      <point x="735" y="0" type="move" name="bot"/>
    </contour>
    <contour>
      <point x="967" y="1431" type="move" name="top"/>
    </contour>
    <contour>
      <point x="170" y="1600" type="line"/>
      <point x="170" y="0" type="line"/>
      <point x="614" y="0" type="line"/>
      <point x="614" y="475" type="line"/>
      <point x="674" y="561" type="line"/>
      <point x="955" y="0" type="line"/>
      <point x="1444" y="0" type="line"/>
      <point x="1046" y="679" type="line"/>
      <point x="1414" y="1231" type="line"/>
      <point x="951" y="1231" type="line"/>
      <point x="722" y="896" type="line" smooth="yes"/>
      <point x="703" y="875"/>
      <point x="633" y="760"/>
      <point x="614" y="739" type="curve"/>
      <point x="614" y="912" type="line" smooth="yes"/>
      <point x="614" y="1600" type="line"/>
    </contour>
  </outline>
</glyph>
<glyph name="l" format="1">
  <advance width="811"/>
  <unicode hex="006C"/>
  <outline>
    <contour>
      <point x="408" y="0" type="move" name="bottom"/>
    </contour>
    <contour>
      <point x="415" y="1026" type="move" name="mid"/>
    </contour>
    <contour>
      <point x="408" y="0" type="move" name="bot"/>
    </contour>
    <contour>
      <point x="489" y="1231" type="move" name="caron.alt"/>
    </contour>
    <contour>
      <point x="423" y="1559" type="move" name="top"/>
    </contour>
    <contour>
      <point x="193" y="1600" type="line"/>
      <point x="193" y="0" type="line"/>
      <point x="637" y="0" type="line"/>
      <point x="637" y="1600" type="line"/>
    </contour>
  </outline>
</glyph>
<glyph name="o" format="1">
  <advance width="1447"/>
  <unicode hex="006F"/>
  <outline>
    <contour>
      <point x="721" y="0" type="move" name="bot"/>
    </contour>
    <contour>
      <point x="834" y="0" type="move" name="ogonek"/>
    </contour>
    <contour>
      <point x="722" y="1231" type="move" name="top"/>
    </contour>
    <contour>
      <point x="135" y="828" type="curve" smooth="yes"/>
      <point x="135" y="419" type="line" smooth="yes"/>
      <point x="135" y="26"/>
      <point x="368" y="-21"/>
      <point x="726" y="-21" type="curve" smooth="yes"/>
      <point x="1075" y="-21"/>
      <point x="1313" y="19"/>
      <point x="1313" y="418" type="curve" smooth="yes"/>
      <point x="1313" y="828" type="line" smooth="yes"/>
      <point x="1313" y="1207"/>
      <point x="1076" y="1252"/>
      <point x="727" y="1252" type="curve" smooth="yes"/>
      <point x="392" y="1252"/>
      <point x="135" y="1209"/>
    </contour>
    <contour>
      <point x="724" y="191" type="curve" smooth="yes"/>
      <point x="664" y="191"/>
      <point x="582" y="197"/>
      <point x="582" y="222" type="curve" smooth="yes"/>
      <point x="582" y="1030" type="line" smooth="yes"/>
      <point x="582" y="1062"/>
      <point x="683" y="1062"/>
      <point x="723" y="1062" type="curve" smooth="yes"/>
      <point x="764" y="1062"/>
      <point x="865" y="1062"/>
      <point x="865" y="1030" type="curve" smooth="yes"/>
      <point x="865" y="222" type="line" smooth="yes"/>
      <point x="865" y="196"/>
      <point x="784" y="191"/>
    </contour>
  </outline>
</glyph>
<glyph name="p" format="1">
  <advance width="1486"/>
  <unicode hex="0070"/>
  <outline>
    <contour>
      <point x="743" y="0" type="move" name="bot"/>
    </contour>
    <contour>
      <point x="743" y="1231" type="move" name="top"/>
    </contour>
    <contour>
      <point x="170" y="-402" type="line"/>
      <point x="614" y="-397" type="line"/>
      <point x="614" y="91" type="line"/>
      <point x="663" y="12"/>
      <point x="787" y="-21"/>
      <point x="938" y="-21" type="curve" smooth="yes"/>
      <point x="1240" y="-21"/>
      <point x="1351" y="113"/>
      <point x="1351" y="425" type="curve" smooth="yes"/>
      <point x="1351" y="812" type="line" smooth="yes"/>
      <point x="1351" y="1118"/>
      <point x="1239" y="1252"/>
      <point x="942" y="1252" type="curve" smooth="yes"/>
      <point x="782" y="1252"/>
      <point x="643" y="1209"/>
      <point x="585" y="1116" type="curve"/>
      <point x="554" y="1231" type="line"/>
      <point x="170" y="1231" type="line"/>
    </contour>
    <contour>
      <point x="756" y="171" type="curve" smooth="yes"/>
      <point x="682" y="171"/>
      <point x="612" y="191"/>
      <point x="612" y="284" type="curve" smooth="yes"/>
      <point x="612" y="965" type="line" smooth="yes"/>
      <point x="612" y="1051"/>
      <point x="670" y="1062"/>
      <point x="756" y="1062" type="curve" smooth="yes"/>
      <point x="852" y="1062"/>
      <point x="897" y="1025"/>
      <point x="897" y="978" type="curve" smooth="yes"/>
      <point x="897" y="272" type="line" smooth="yes"/>
      <point x="897" y="183"/>
      <point x="840" y="171"/>
    </contour>
  </outline>
</glyph>
<glyph name="q" format="1">
  <advance width="1485"/>
  <unicode hex="0071"/>
  <outline>
    <contour>
      <point x="144" y="812" type="curve" smooth="yes"/>
      <point x="144" y="425" type="line" smooth="yes"/>
      <point x="144" y="113"/>
      <point x="255" y="-21"/>
      <point x="568" y="-21" type="curve" smooth="yes"/>
      <point x="719" y="-21"/>
      <point x="833" y="14"/>
      <point x="881" y="92" type="curve"/>
      <point x="881" y="-397" type="line"/>
      <point x="1325" y="-402" type="line"/>
      <point x="1325" y="1231" type="line"/>
      <point x="941" y="1231" type="line"/>
      <point x="910" y="1116" type="line"/>
      <point x="852" y="1209"/>
      <point x="724" y="1252"/>
      <point x="564" y="1252" type="curve" smooth="yes"/>
      <point x="256" y="1252"/>
      <point x="144" y="1118"/>
    </contour>
    <contour>
      <point x="739" y="171" type="curve" smooth="yes"/>
      <point x="655" y="171"/>
      <point x="599" y="183"/>
      <point x="599" y="272" type="curve" smooth="yes"/>
      <point x="599" y="981" type="line" smooth="yes"/>
      <point x="599" y="1025"/>
      <point x="643" y="1062"/>
      <point x="739" y="1062" type="curve" smooth="yes"/>
      <point x="825" y="1062"/>
      <point x="883" y="1051"/>
      <point x="883" y="965" type="curve" smooth="yes"/>
      <point x="883" y="284" type="line" smooth="yes"/>
      <point x="883" y="193"/>
      <point x="813" y="171"/>
    </contour>
  </outline>
</glyph>
<glyph name="s" format="1">
  <advance width="1315"/>
  <unicode hex="0073"/>
  <outline>
    <contour>
      <point x="657" y="0" type="move" name="bot"/>
    </contour>
    <contour>
      <point x="652" y="1231" type="move" name="top"/>
    </contour>
    <contour>
      <point x="669" y="-21" type="curve" smooth="yes"/>
      <point x="1064" y="-21"/>
      <point x="1221" y="19"/>
      <point x="1221" y="379" type="curve" smooth="yes"/>
      <point x="1221" y="642"/>
      <point x="1124" y="702"/>
      <point x="877" y="741" type="curve"/>
      <point x="703" y="772" type="line" smooth="yes"/>
      <point x="547" y="797"/>
      <point x="540" y="798"/>
      <point x="540" y="885" type="curve" smooth="yes"/>
      <point x="540" y="905"/>
      <point x="541" y="1015"/>
      <point x="551" y="1023" type="curve" smooth="yes"/>
      <point x="560" y="1032"/>
      <point x="628" y="1035"/>
      <point x="664" y="1035" type="curve" smooth="yes"/>
      <point x="700" y="1035"/>
      <point x="769" y="1034"/>
      <point x="780" y="1027" type="curve" smooth="yes"/>
      <point x="791" y="1020"/>
      <point x="794" y="916"/>
      <point x="796" y="891" type="curve"/>
      <point x="1185" y="916" type="line"/>
      <point x="1185" y="1228"/>
      <point x="1014" y="1252"/>
      <point x="676" y="1252" type="curve" smooth="yes"/>
      <point x="296" y="1252"/>
      <point x="116" y="1198"/>
      <point x="116" y="875" type="curve" smooth="yes"/>
      <point x="116" y="602"/>
      <point x="224" y="548"/>
      <point x="462" y="513" type="curve"/>
      <point x="639" y="483" type="line" smooth="yes"/>
      <point x="771" y="464"/>
      <point x="796" y="465"/>
      <point x="796" y="365" type="curve" smooth="yes"/>
      <point x="796" y="343"/>
      <point x="795" y="223"/>
      <point x="786" y="211" type="curve" smooth="yes"/>
      <point x="777" y="200"/>
      <point x="710" y="194"/>
      <point x="673" y="194" type="curve" smooth="yes"/>
      <point x="629" y="194"/>
      <point x="558" y="194"/>
      <point x="546" y="203" type="curve" smooth="yes"/>
      <point x="534" y="212"/>
      <point x="533" y="340"/>
      <point x="530" y="373" type="curve"/>
      <point x="135" y="345" type="line"/>
      <point x="135" y="0"/>
      <point x="318" y="-21"/>
    </contour>
  </outline>
</glyph>
<glyph name="t" format="1">
  <advance width="1016"/>
  <unicode hex="0074"/>
  <outline>
    <contour>
      <point x="489" y="725" type="move" name="mid"/>
    </contour>
    <contour>
      <point x="540" y="0" type="move" name="bot"/>
    </contour>
    <contour>
      <point x="485" y="1285" type="move" name="caron.alt"/>
    </contour>
    <contour>
      <point x="483" y="1477" type="move" name="top"/>
    </contour>
    <contour>
      <point x="249" y="1544" type="line"/>
      <point x="249" y="1231" type="line"/>
      <point x="101" y="1231" type="line"/>
      <point x="101" y="1061" type="line"/>
      <point x="249" y="1061" type="line"/>
      <point x="249" y="318" type="line" smooth="yes"/>
      <point x="249" y="39"/>
      <point x="385" y="-21"/>
      <point x="707" y="-22" type="curve" smooth="yes"/>
      <point x="801" y="-22"/>
      <point x="890" y="-8"/>
      <point x="916" y="-5" type="curve"/>
      <point x="917" y="194" type="line"/>
      <point x="776" y="186"/>
      <point x="692" y="203"/>
      <point x="692" y="296" type="curve" smooth="yes"/>
      <point x="692" y="1061" type="line"/>
      <point x="873" y="1061" type="line"/>
      <point x="873" y="1231" type="line"/>
      <point x="692" y="1231" type="line"/>
      <point x="692" y="1544" type="line"/>
    </contour>
  </outline>
</glyph>
<glyph name="u" format="1">
  <advance width="1476"/>
  <unicode hex="0075"/>
  <outline>
    <contour>
      <point x="1058" y="0" type="move" name="ogonek"/>
    </contour>
    <contour>
      <point x="730" y="1231" type="move" name="top"/>
    </contour>
    <contour>
      <point x="862" y="1231" type="line"/>
      <point x="862" y="259" type="line" smooth="yes"/>
      <point x="862" y="209"/>
      <point x="817" y="168"/>
      <point x="725" y="168" type="curve" smooth="yes"/>
      <point x="637" y="168"/>
      <point x="591" y="188"/>
      <point x="591" y="283" type="curve" smooth="yes"/>
      <point x="591" y="1231" type="line"/>
      <point x="147" y="1231" type="line"/>
      <point x="147" y="388" type="line" smooth="yes"/>
      <point x="147" y="106"/>
      <point x="264" y="-21"/>
      <point x="541" y="-21" type="curve" smooth="yes"/>
      <point x="694" y="-21"/>
      <point x="826" y="29"/>
      <point x="877" y="122" type="curve"/>
      <point x="908" y="0" type="line"/>
      <point x="1306" y="0" type="line"/>
      <point x="1306" y="1231" type="line"/>
    </contour>
  </outline>
</glyph>
<glyph name="v" format="1">
  <advance width="1358"/>
  <unicode hex="0076"/>
  <outline>
    <contour>
      <point x="851" y="1231" type="line"/>
      <point x="690" y="293" type="line"/>
      <point x="681" y="293" type="line"/>
      <point x="494" y="1231" type="line"/>
      <point x="67" y="1231" type="line"/>
      <point x="377" y="0" type="line"/>
      <point x="973" y="0" type="line"/>
      <point x="1284" y="1231" type="line"/>
    </contour>
  </outline>
</glyph>
<glyph name="x" format="1">
  <advance width="1332"/>
  <unicode hex="0078"/>
  <outline>
    <contour>
      <point x="68" y="0" type="line"/>
      <point x="446" y="0" type="line"/>
      <point x="678" y="394" type="line"/>
      <point x="850" y="554" type="line"/>
      <point x="1255" y="1231" type="line"/>
      <point x="882" y="1231" type="line"/>
      <point x="664" y="846" type="line"/>
      <point x="480" y="693" type="line"/>
    </contour>
    <contour>
      <point x="820" y="0" type="line"/>
      <point x="1264" y="0" type="line"/>
      <point x="525" y="1231" type="line"/>
      <point x="78" y="1231" type="line"/>
    </contour>
  </outline>
</glyph>
<glyph name="y" format="1">
  <advance width="1340"/>
  <unicode hex="0079"/>
  <outline>
    <contour>
      <point x="669" y="0" type="move" name="bot"/>
    </contour>
    <contour>
      <point x="672" y="1231" type="move" name="top"/>
    </contour>
    <contour>
      <point x="856" y="1231" type="line"/>
      <point x="698" y="322" type="line"/>
      <point x="693" y="322" type="line"/>
      <point x="477" y="1231" type="line"/>
      <point x="62" y="1231" type="line"/>
      <point x="450" y="30" type="line"/>
      <point x="447" y="-14"/>
      <point x="445" y="-45"/>
      <point x="436" y="-66" type="curve"/>
      <point x="428" y="-111"/>
      <point x="393" y="-128"/>
      <point x="333" y="-128" type="curve" smooth="yes"/>
      <point x="286" y="-128"/>
      <point x="220" y="-114"/>
      <point x="146" y="-96" type="curve"/>
      <point x="113" y="-346" type="line"/>
      <point x="220" y="-372"/>
      <point x="384" y="-393"/>
      <point x="479" y="-393" type="curve" smooth="yes"/>
      <point x="706" y="-393"/>
      <point x="862" y="-316"/>
      <point x="945" y="-16" type="curve" smooth="yes"/>
      <point x="1273" y="1231" type="line"/>
    </contour>
  </outline>
</glyph>
<glyph name="asciitilde" format="1">
  <advance width="1423"/>
  <unicode hex="007E"/>
  <outline>
    <contour>
      <point x="964" y="611" type="curve" smooth="yes"/>
      <point x="1147" y="589"/>
      <point x="1247" y="706"/>
      <point x="1276" y="965" type="curve"/>
      <point x="1143" y="1008" type="line"/>
      <point x="1097" y="904"/>
      <point x="1051" y="854"/>
      <point x="942" y="878" type="curve" smooth="yes"/>
      <point x="797" y="912"/>
      <point x="664" y="1065"/>
      <point x="459" y="1036" type="curve" smooth="yes"/>
      <point x="327" y="1018"/>
      <point x="236" y="942"/>
      <point x="188" y="710" type="curve"/>
      <point x="296" y="648" type="line"/>
      <point x="333" y="761"/>
      <point x="393" y="793"/>
      <point x="476" y="785" type="curve" smooth="yes"/>
      <point x="637" y="768"/>
      <point x="780" y="633"/>
    </contour>
  </outline>
</glyph>
<glyph name="cent" format="1">
  <advance width="1587"/>
  <unicode hex="00A2"/>
  <outline>
    <component base="C"/>
    <contour>
      <point x="742" y="1820" type="line"/>
      <point x="742" y="1503" type="line"/>
      <point x="891" y="1503" type="line"/>
      <point x="891" y="1820" type="line"/>
    </contour>
    <contour>
      <point x="744" y="42" type="line"/>
      <point x="744" y="-264" type="line"/>
      <point x="893" y="-264" type="line"/>
      <point x="893" y="42" type="line"/>
    </contour>
  </outline>
</glyph>
<glyph name="yen" format="1">
  <advance width="1534"/>
  <unicode hex="00A5"/>
  <outline>
    <contour>
      <point x="529" y="0" type="line"/>
      <point x="997" y="0" type="line"/>
      <point x="997" y="286" type="line"/>
      <point x="1318" y="286" type="line"/>
      <point x="1318" y="410" type="line"/>
      <point x="997" y="410" type="line"/>
      <point x="1032" y="562" type="line"/>
      <point x="1334" y="562" type="line"/>
      <point x="1334" y="695" type="line"/>
      <point x="1086" y="695" type="line"/>
      <point x="1442" y="1559" type="line"/>
      <point x="1003" y="1559" type="line"/>
      <point x="774" y="785" type="line"/>
      <point x="531" y="1559" type="line"/>
      <point x="87" y="1559" type="line"/>
      <point x="443" y="695" type="line"/>
      <point x="192" y="695" type="line"/>
      <point x="192" y="562" type="line"/>
      <point x="497" y="562" type="line"/>
      <point x="529" y="410" type="line"/>
      <point x="208" y="410" type="line"/>
      <point x="208" y="286" type="line"/>
      <point x="529" y="286" type="line"/>
    </contour>
  </outline>
</glyph>
<glyph name="brokenbar" format="1">
  <advance width="955"/>
  <unicode hex="00A6"/>
  <outline>
    <contour>
      <point x="256" y="1684" type="line"/>
      <point x="256" y="807" type="line"/>
      <point x="697" y="807" type="line"/>
      <point x="697" y="1684" type="line"/>
    </contour>
    <contour>
      <point x="256" y="627" type="line"/>
      <point x="256" y="-251" type="line"/>
      <point x="697" y="-251" type="line"/>
      <point x="697" y="627" type="line"/>
    </contour>
  </outline>
</glyph>
<glyph name="dieresis" format="1">
  <advance width="1299"/>
  <unicode hex="00A8"/>
  <outline>
    <contour>
      <point x="681" y="1231" type="move" name="_top"/>
    </contour>
    <contour>
      <point x="821" y="1518" type="curve" smooth="yes"/>
      <point x="821" y="1416"/>
      <point x="887" y="1367"/>
      <point x="976" y="1367" type="curve" smooth="yes"/>
      <point x="1067" y="1367"/>
      <point x="1129" y="1416"/>
      <point x="1129" y="1518" type="curve" smooth="yes"/>
      <point x="1129" y="1620"/>
      <point x="1067" y="1668"/>
      <point x="976" y="1668" type="curve" smooth="yes"/>
      <point x="888" y="1668"/>
      <point x="821" y="1618"/>
    </contour>
    <contour>
      <point x="239" y="1518" type="curve" smooth="yes"/>
      <point x="239" y="1416"/>
      <point x="304" y="1367"/>
      <point x="394" y="1367" type="curve" smooth="yes"/>
      <point x="485" y="1367"/>
      <point x="548" y="1416"/>
      <point x="548" y="1518" type="curve" smooth="yes"/>
      <point x="548" y="1620"/>
      <point x="485" y="1668"/>
      <point x="394" y="1668" type="curve" smooth="yes"/>
      <point x="306" y="1668"/>
      <point x="239" y="1618"/>
    </contour>
  </outline>
</glyph>
<glyph name="guillemotleft" format="1">
  <advance width="1678"/>
  <unicode hex="00AB"/>
  <outline>
    <contour>
      <point x="741" y="211" type="curve" smooth="yes"/>
      <point x="784" y="211"/>
      <point x="817" y="248"/>
      <point x="817" y="292" type="curve" smooth="yes"/>
      <point x="817" y="313"/>
      <point x="810" y="335"/>
      <point x="793" y="355" type="curve" smooth="yes"/>
      <point x="432" y="778" type="line"/>
      <point x="793" y="1202" type="line"/>
      <point x="811" y="1225"/>
      <point x="818" y="1247"/>
      <point x="818" y="1266" type="curve" smooth="yes"/>
      <point x="818" y="1311"/>
      <point x="785" y="1347"/>
      <point x="742" y="1346" type="curve" smooth="yes"/>
      <point x="724" y="1347"/>
      <point x="704" y="1340"/>
      <point x="682" y="1324" type="curve" smooth="yes"/>
      <point x="163" y="940" type="line" smooth="yes"/>
      <point x="109" y="900"/>
      <point x="80" y="839"/>
      <point x="79" y="777" type="curve" smooth="yes"/>
      <point x="79" y="718"/>
      <point x="107" y="658"/>
      <point x="163" y="617" type="curve" smooth="yes"/>
      <point x="682" y="233" type="line" smooth="yes"/>
      <point x="701" y="218"/>
      <point x="723" y="211"/>
    </contour>
    <contour>
      <point x="1417" y="211" type="curve" smooth="yes"/>
      <point x="1460" y="211"/>
      <point x="1492" y="248"/>
      <point x="1492" y="292" type="curve" smooth="yes"/>
      <point x="1492" y="313"/>
      <point x="1486" y="335"/>
      <point x="1469" y="355" type="curve" smooth="yes"/>
      <point x="1108" y="778" type="line"/>
      <point x="1469" y="1202" type="line"/>
      <point x="1487" y="1225"/>
      <point x="1493" y="1247"/>
      <point x="1493" y="1266" type="curve" smooth="yes"/>
      <point x="1493" y="1311"/>
      <point x="1462" y="1347"/>
      <point x="1418" y="1346" type="curve" smooth="yes"/>
      <point x="1401" y="1347"/>
      <point x="1380" y="1340"/>
      <point x="1357" y="1324" type="curve" smooth="yes"/>
      <point x="839" y="940" type="line" smooth="yes"/>
      <point x="785" y="900"/>
      <point x="756" y="839"/>
      <point x="756" y="777" type="curve" smooth="yes"/>
      <point x="756" y="718"/>
      <point x="783" y="658"/>
      <point x="839" y="617" type="curve" smooth="yes"/>
      <point x="1357" y="233" type="line" smooth="yes"/>
      <point x="1378" y="217"/>
      <point x="1399" y="211"/>
    </contour>
  </outline>
</glyph>
<glyph name="uni00AD" format="1">
  <advance width="1222"/>
  <unicode hex="00AD"/>
  <outline>
    <contour>
      <point x="200" y="557" type="line"/>
      <point x="1017" y="557" type="line"/>
      <point x="1017" y="840" type="line"/>
      <point x="200" y="840" type="line"/>
    </contour>
  </outline>
</glyph>
<glyph name="twosuperior" format="1">
  <advance width="1123"/>
  <unicode hex="00B2"/>
  <outline>
    <contour>
      <point x="186" y="503" type="line"/>
      <point x="979" y="503" type="line"/>
      <point x="979" y="682" type="line"/>
      <point x="486" y="682" type="line"/>
      <point x="486" y="771"/>
      <point x="541" y="824"/>
      <point x="662" y="868" type="curve"/>
      <point x="829" y="936"/>
      <point x="1012" y="1003"/>
      <point x="1012" y="1245" type="curve" smooth="yes"/>
      <point x="1012" y="1511"/>
      <point x="861" y="1578"/>
      <point x="599" y="1578" type="curve" smooth="yes"/>
      <point x="356" y="1578"/>
      <point x="179" y="1517"/>
      <point x="183" y="1247" type="curve"/>
      <point x="183" y="1205" type="line"/>
      <point x="489" y="1212" type="line"/>
      <point x="489" y="1360" type="line" smooth="yes"/>
      <point x="489" y="1386"/>
      <point x="528" y="1407"/>
      <point x="597" y="1407" type="curve" smooth="yes"/>
      <point x="661" y="1407"/>
      <point x="703" y="1393"/>
      <point x="703" y="1366" type="curve" smooth="yes"/>
      <point x="703" y="1241" type="line" smooth="yes"/>
      <point x="703" y="1173"/>
      <point x="632" y="1146"/>
      <point x="530" y="1112" type="curve" smooth="yes"/>
      <point x="305" y="1033"/>
      <point x="186" y="927"/>
      <point x="186" y="665" type="curve" smooth="yes"/>
    </contour>
  </outline>
</glyph>
<glyph name="acute" format="1">
  <advance width="1077"/>
  <unicode hex="00B4"/>
  <outline>
    <contour>
      <point x="464" y="1231" type="move" name="_top"/>
    </contour>
    <contour>
      <point x="341" y="1412" type="curve" smooth="yes"/>
      <point x="476" y="1453"/>
      <point x="792" y="1547"/>
      <point x="869" y="1590" type="curve" smooth="yes"/>
      <point x="939" y="1629"/>
      <point x="969" y="1690"/>
      <point x="969" y="1746" type="curve" smooth="yes"/>
      <point x="969" y="1825"/>
      <point x="910" y="1897"/>
      <point x="820" y="1897" type="curve" smooth="yes"/>
      <point x="784" y="1897"/>
      <point x="746" y="1885"/>
      <point x="708" y="1861" type="curve" smooth="yes"/>
      <point x="629" y="1812"/>
      <point x="403" y="1586"/>
      <point x="295" y="1488" type="curve" smooth="yes"/>
      <point x="271" y="1466"/>
      <point x="267" y="1443"/>
      <point x="277" y="1428" type="curve" smooth="yes"/>
      <point x="287" y="1411"/>
      <point x="313" y="1402"/>
    </contour>
  </outline>
</glyph>
<glyph name="paragraph" format="1">
  <advance width="1444"/>
  <unicode hex="00B6"/>
  <outline>
    <contour>
      <point x="700" y="1559" type="line" smooth="yes"/>
      <point x="373" y="1559"/>
      <point x="140" y="1470"/>
      <point x="140" y="1118" type="curve" smooth="yes"/>
      <point x="140" y="828"/>
      <point x="337" y="709"/>
      <point x="663" y="709" type="curve"/>
      <point x="663" y="-78" type="line"/>
      <point x="878" y="-78" type="line"/>
      <point x="878" y="905" type="line"/>
      <point x="1021" y="905" type="line"/>
      <point x="1021" y="-78" type="line"/>
      <point x="1230" y="-78" type="line"/>
      <point x="1230" y="1559" type="line"/>
    </contour>
  </outline>
</glyph>
<glyph name="periodcentered" format="1">
  <advance width="1035"/>
  <unicode hex="00B7"/>
  <outline>
    <contour>
      <point x="240" y="964" type="move" name="_mid"/>
    </contour>
    <contour>
      <point x="713" y="802" type="curve" smooth="yes"/>
      <point x="798" y="802"/>
      <point x="871" y="863"/>
      <point x="871" y="968" type="curve" smooth="yes"/>
      <point x="871" y="1074"/>
      <point x="796" y="1135"/>
      <point x="713" y="1135" type="curve" smooth="yes"/>
      <point x="628" y="1135"/>
      <point x="555" y="1075"/>
      <point x="555" y="968" type="curve" smooth="yes"/>
      <point x="555" y="863"/>
      <point x="630" y="802"/>
    </contour>
  </outline>
</glyph>
<glyph name="cedilla" format="1">
  <advance width="949"/>
  <unicode hex="00B8"/>
  <outline>
    <contour>
      <point x="536" y="0" type="move" name="_bot"/>
    </contour>
    <contour>
      <point x="486" y="17" type="line"/>
      <point x="446" y="-132" type="line" smooth="yes"/>
      <point x="421" y="-227"/>
      <point x="409" y="-278"/>
      <point x="408" y="-285" type="curve"/>
      <point x="501" y="-285"/>
      <point x="547" y="-313"/>
      <point x="547" y="-366" type="curve" smooth="yes"/>
      <point x="547" y="-401"/>
      <point x="525" y="-413"/>
      <point x="491" y="-413" type="curve" smooth="yes"/>
      <point x="430" y="-413"/>
      <point x="339" y="-367"/>
      <point x="329" y="-363" type="curve"/>
      <point x="277" y="-462" type="line"/>
      <point x="342" y="-519"/>
      <point x="435" y="-549"/>
      <point x="521" y="-549" type="curve" smooth="yes"/>
      <point x="649" y="-549"/>
      <point x="770" y="-485"/>
      <point x="770" y="-354" type="curve" smooth="yes"/>
      <point x="770" y="-200"/>
      <point x="682" y="-170"/>
      <point x="553" y="-152" type="curve"/>
      <point x="602" y="17" type="line"/>
    </contour>
  </outline>
</glyph>
<glyph name="onesuperior" format="1">
  <advance width="888"/>
  <unicode hex="00B9"/>
  <outline>
    <contour>
      <point x="310" y="498" type="line"/>
      <point x="633" y="498" type="line"/>
      <point x="633" y="1559" type="line"/>
      <point x="389" y="1559" type="line"/>
      <point x="332" y="1524"/>
      <point x="256" y="1504"/>
      <point x="166" y="1504" type="curve"/>
      <point x="166" y="1367" type="line"/>
      <point x="310" y="1367" type="line"/>
    </contour>
  </outline>
</glyph>
<glyph name="onequarter" format="1">
  <advance width="2512"/>
  <unicode hex="00BC"/>
  <outline>
    <contour>
      <point x="2078" y="0" type="line"/>
      <point x="2379" y="0" type="line"/>
      <point x="2379" y="650" type="line"/>
      <point x="2078" y="650" type="line"/>
      <point x="2078" y="404" type="line"/>
      <point x="1863" y="404" type="line"/>
      <point x="1863" y="432" type="line"/>
      <point x="2090" y="1062" type="line"/>
      <point x="1776" y="1062" type="line"/>
      <point x="1538" y="428" type="line"/>
      <point x="1538" y="192" type="line"/>
      <point x="2078" y="192" type="line"/>
    </contour>
    <contour>
      <point x="234" y="519" type="line"/>
      <point x="557" y="519" type="line"/>
      <point x="557" y="1559" type="line"/>
      <point x="313" y="1559" type="line"/>
      <point x="256" y="1524"/>
      <point x="180" y="1504"/>
      <point x="90" y="1504" type="curve"/>
      <point x="90" y="1367" type="line"/>
      <point x="234" y="1367" type="line"/>
    </contour>
    <contour>
      <point x="736" y="0" type="line"/>
      <point x="1010" y="0" type="line"/>
      <point x="1536" y="1572" type="line"/>
      <point x="1169" y="1572" type="line"/>
    </contour>
  </outline>
</glyph>
<glyph name="onehalf" format="1">
  <advance width="2569"/>
  <unicode hex="00BD"/>
  <outline>
    <contour>
      <point x="1635" y="0" type="line"/>
      <point x="2428" y="0" type="line"/>
      <point x="2428" y="179" type="line"/>
      <point x="1936" y="179" type="line"/>
      <point x="1936" y="268"/>
      <point x="1991" y="321"/>
      <point x="2112" y="365" type="curve"/>
      <point x="2279" y="433"/>
      <point x="2461" y="500"/>
      <point x="2461" y="742" type="curve" smooth="yes"/>
      <point x="2461" y="1008"/>
      <point x="2311" y="1075"/>
      <point x="2049" y="1075" type="curve" smooth="yes"/>
      <point x="1806" y="1075"/>
      <point x="1628" y="1014"/>
      <point x="1632" y="744" type="curve" smooth="yes"/>
      <point x="1633" y="702" type="line"/>
      <point x="1939" y="709" type="line"/>
      <point x="1939" y="857" type="line" smooth="yes"/>
      <point x="1939" y="883"/>
      <point x="1978" y="904"/>
      <point x="2047" y="904" type="curve" smooth="yes"/>
      <point x="2111" y="903"/>
      <point x="2153" y="890"/>
      <point x="2153" y="863" type="curve" smooth="yes"/>
      <point x="2153" y="738" type="line" smooth="yes"/>
      <point x="2153" y="670"/>
      <point x="2082" y="643"/>
      <point x="1980" y="609" type="curve" smooth="yes"/>
      <point x="1755" y="529"/>
      <point x="1635" y="424"/>
      <point x="1635" y="162" type="curve" smooth="yes"/>
    </contour>
    <contour>
      <point x="234" y="519" type="line"/>
      <point x="557" y="519" type="line"/>
      <point x="557" y="1559" type="line"/>
      <point x="313" y="1559" type="line"/>
      <point x="256" y="1524"/>
      <point x="180" y="1504"/>
      <point x="90" y="1504" type="curve"/>
      <point x="90" y="1367" type="line"/>
      <point x="234" y="1367" type="line"/>
    </contour>
    <contour>
      <point x="745" y="0" type="line"/>
      <point x="1019" y="0" type="line"/>
      <point x="1545" y="1572" type="line"/>
      <point x="1178" y="1572" type="line"/>
    </contour>
  </outline>
</glyph>
<glyph name="AE" format="1">
  <advance width="1958"/>
  <unicode hex="00C6"/>
  <outline>
    <contour>
      <point x="1123" y="1559" type="move" name="top"/>
    </contour>
    <contour>
      <point x="27" y="0" type="line"/>
      <point x="519" y="0" type="line"/>
      <point x="676" y="359" type="line"/>
      <point x="999" y="359" type="line"/>
      <point x="999" y="0" type="line"/>
      <point x="1909" y="0" type="line"/>
      <point x="1909" y="218" type="line"/>
      <point x="1458" y="218" type="line"/>
      <point x="1458" y="706" type="line"/>
      <point x="1850" y="706" type="line"/>
      <point x="1850" y="928" type="line"/>
      <point x="1458" y="928" type="line"/>
      <point x="1458" y="1343" type="line"/>
      <point x="1902" y="1343" type="line"/>
      <point x="1902" y="1559" type="line"/>
      <point x="749" y="1559" type="line"/>
    </contour>
    <contour>
      <point x="747" y="559" type="line"/>
      <point x="999" y="1157" type="line"/>
      <point x="999" y="559" type="line"/>
    </contour>
  </outline>
</glyph>
<glyph name="Oslash" format="1">
  <advance width="1735"/>
  <unicode hex="00D8"/>
  <outline>
    <component base="O"/>
    <contour>
      <point x="852" y="1595" type="move" name="top"/>
    </contour>
    <contour>
      <point x="1235" y="1314" type="line"/>
      <point x="1469" y="1684" type="line"/>
      <point x="1346" y="1756" type="line"/>
      <point x="1107" y="1378" type="line"/>
    </contour>
    <contour>
      <point x="296" y="-154" type="line"/>
      <point x="486" y="150" type="line"/>
      <point x="370" y="229" type="line"/>
      <point x="177" y="-80" type="line"/>
    </contour>
  </outline>
</glyph>
<glyph name="eth" format="1">
  <advance width="1458"/>
  <unicode hex="00F0"/>
  <outline>
    <contour>
      <point x="730" y="-33" type="curve" smooth="yes"/>
      <point x="1196" y="-33"/>
      <point x="1304" y="221"/>
      <point x="1304" y="686" type="curve" smooth="yes"/>
      <point x="1304" y="1100"/>
      <point x="1196" y="1346"/>
      <point x="1012" y="1507" type="curve"/>
      <point x="1176" y="1637" type="line"/>
      <point x="1109" y="1739" type="line"/>
      <point x="912" y="1585" type="line"/>
      <point x="799" y="1659"/>
      <point x="665" y="1713"/>
      <point x="497" y="1756" type="curve"/>
      <point x="343" y="1489" type="line"/>
      <point x="489" y="1441"/>
      <point x="569" y="1416"/>
      <point x="632" y="1381" type="curve"/>
      <point x="447" y="1238" type="line"/>
      <point x="513" y="1135" type="line"/>
      <point x="733" y="1303" type="line"/>
      <point x="793" y="1245"/>
      <point x="853" y="1152"/>
      <point x="858" y="1001" type="curve"/>
      <point x="851" y="1035"/>
      <point x="717" y="1052"/>
      <point x="641" y="1052" type="curve" smooth="yes"/>
      <point x="279" y="1052"/>
      <point x="142" y="896"/>
      <point x="138" y="574" type="curve" smooth="yes"/>
      <point x="138" y="566"/>
      <point x="137" y="484"/>
      <point x="137" y="476" type="curve" smooth="yes"/>
      <point x="137" y="99"/>
      <point x="318" y="-33"/>
    </contour>
    <contour>
      <point x="724" y="192" type="curve" smooth="yes"/>
      <point x="632" y="192"/>
      <point x="578" y="194"/>
      <point x="578" y="230" type="curve" smooth="yes"/>
      <point x="578" y="789" type="line" smooth="yes"/>
      <point x="578" y="827"/>
      <point x="627" y="831"/>
      <point x="725" y="831" type="curve" smooth="yes"/>
      <point x="812" y="831"/>
      <point x="857" y="810"/>
      <point x="857" y="768" type="curve" smooth="yes"/>
      <point x="857" y="226" type="line" smooth="yes"/>
      <point x="857" y="198"/>
      <point x="815" y="192"/>
    </contour>
  </outline>
</glyph>
<glyph name="Hbar" format="1">
  <advance width="1710"/>
  <unicode hex="0126"/>
  <outline>
    <contour>
      <point x="207" y="0" type="line"/>
      <point x="675" y="0" type="line"/>
      <point x="675" y="687" type="line"/>
      <point x="1029" y="687" type="line"/>
      <point x="1029" y="0" type="line"/>
      <point x="1497" y="0" type="line"/>
      <point x="1497" y="1133" type="line"/>
      <point x="1593" y="1133" type="line"/>
      <point x="1593" y="1295" type="line"/>
      <point x="1497" y="1295" type="line"/>
      <point x="1497" y="1559" type="line"/>
      <point x="1029" y="1559" type="line"/>
      <point x="1029" y="1295" type="line"/>
      <point x="675" y="1295" type="line"/>
      <point x="675" y="1559" type="line"/>
      <point x="207" y="1559" type="line"/>
      <point x="207" y="1295" type="line"/>
      <point x="117" y="1295" type="line"/>
      <point x="117" y="1133" type="line"/>
      <point x="207" y="1133" type="line"/>
    </contour>
    <contour>
      <point x="675" y="905" type="line"/>
      <point x="675" y="1133" type="line"/>
      <point x="1029" y="1133" type="line"/>
      <point x="1029" y="905" type="line"/>
    </contour>
  </outline>
</glyph>
<glyph name="Lslash" format="1">
  <advance width="1167"/>
  <unicode hex="0141"/>
  <outline>
    <contour>
      <point x="41" y="580" type="line"/>
      <point x="889" y="930" type="line"/>
      <point x="889" y="1218" type="line"/>
      <point x="41" y="870" type="line"/>
    </contour>
    <component base="L"/>
  </outline>
</glyph>
<glyph name="lslash" format="1">
  <advance width="851"/>
  <unicode hex="0142"/>
  <outline>
    <component base="l" xOffset="10"/>
    <contour>
      <point x="62" y="691" type="line"/>
      <point x="819" y="975" type="line"/>
      <point x="819" y="1249" type="line"/>
      <point x="62" y="966" type="line"/>
    </contour>
  </outline>
</glyph>
<glyph name="OE" format="1">
  <advance width="1950"/>
  <unicode hex="0152"/>
  <outline>
    <contour>
      <point x="978" y="1559" type="move" name="top"/>
    </contour>
    <contour>
      <point x="746" y="-1" type="curve" smooth="yes"/>
      <point x="1851" y="0" type="line"/>
      <point x="1857" y="213" type="line"/>
      <point x="1406" y="213" type="line"/>
      <point x="1406" y="706" type="line"/>
      <point x="1806" y="706" type="line"/>
      <point x="1806" y="926" type="line"/>
      <point x="1406" y="926" type="line"/>
      <point x="1406" y="1348" type="line"/>
      <point x="1854" y="1348" type="line"/>
      <point x="1848" y="1559" type="line"/>
      <point x="746" y="1559" type="line" smooth="yes"/>
      <point x="327" y="1559"/>
      <point x="134" y="1486"/>
      <point x="134" y="1086" type="curve" smooth="yes"/>
      <point x="134" y="493" type="line" smooth="yes"/>
      <point x="134" y="72"/>
      <point x="304" y="-1"/>
    </contour>
    <contour>
      <point x="755" y="205" type="line" smooth="yes"/>
      <point x="672" y="205"/>
      <point x="603" y="216"/>
      <point x="595" y="277" type="curve" smooth="yes"/>
      <point x="589" y="321"/>
      <point x="587" y="1158"/>
      <point x="591" y="1273" type="curve" smooth="yes"/>
      <point x="593" y="1340"/>
      <point x="641" y="1354"/>
      <point x="755" y="1354" type="curve" smooth="yes"/>
      <point x="920" y="1354" type="line"/>
      <point x="920" y="205" type="line"/>
    </contour>
  </outline>
</glyph>
<glyph name="dotlessj" format="1">
  <advance width="1003"/>
  <unicode hex="0237"/>
  <outline>
    <contour>
      <point x="538" y="1231" type="move" name="top"/>
    </contour>
    <contour>
      <point x="319" y="1231" type="line"/>
      <point x="319" y="-65" type="line" smooth="yes"/>
      <point x="319" y="-107"/>
      <point x="164" y="-101"/>
      <point x="137" y="-102" type="curve"/>
      <point x="158" y="-301" type="line"/>
      <point x="225" y="-314"/>
      <point x="290" y="-318"/>
      <point x="372" y="-318" type="curve" smooth="yes"/>
      <point x="636" y="-318"/>
      <point x="763" y="-199"/>
      <point x="763" y="83" type="curve" smooth="yes"/>
      <point x="763" y="1231" type="line"/>
    </contour>
  </outline>
</glyph>
<glyph name="uni02C9" format="1">
  <advance width="1095"/>
  <unicode hex="02C9"/>
  <outline>
    <contour>
      <point x="628" y="1231" type="move" name="_top"/>
    </contour>
    <contour>
      <point x="254" y="1639" type="line"/>
      <point x="254" y="1444" type="line"/>
      <point x="1007" y="1444" type="line"/>
      <point x="1007" y="1639" type="line"/>
    </contour>
  </outline>
</glyph>
<glyph name="ring" format="1">
  <advance width="1037"/>
  <unicode hex="02DA"/>
  <outline>
    <contour>
      <point x="586" y="1231" type="move" name="_top"/>
    </contour>
    <contour>
      <point x="280" y="1661" type="curve" smooth="yes"/>
      <point x="280" y="1478"/>
      <point x="397" y="1365"/>
      <point x="586" y="1365" type="curve" smooth="yes"/>
      <point x="775" y="1365"/>
      <point x="894" y="1478"/>
      <point x="894" y="1661" type="curve" smooth="yes"/>
      <point x="894" y="1845"/>
      <point x="775" y="1961"/>
      <point x="586" y="1961" type="curve" smooth="yes"/>
      <point x="398" y="1961"/>
      <point x="280" y="1845"/>
    </contour>
    <contour>
      <point x="721" y="1661" type="curve" smooth="yes"/>
      <point x="721" y="1570"/>
      <point x="671" y="1519"/>
      <point x="586" y="1519" type="curve" smooth="yes"/>
      <point x="499" y="1519"/>
      <point x="449" y="1571"/>
      <point x="449" y="1661" type="curve" smooth="yes"/>
      <point x="449" y="1753"/>
      <point x="497" y="1806"/>
      <point x="586" y="1806" type="curve" smooth="yes"/>
      <point x="672" y="1806"/>
      <point x="721" y="1755"/>
    </contour>
  </outline>
</glyph>
<glyph name="ogonek" format="1">
  <advance width="952"/>
  <unicode hex="02DB"/>
  <outline>
    <contour>
      <point x="580" y="0" type="move" name="_ogonek"/>
    </contour>
    <contour>
      <point x="517" y="0" type="line"/>
      <point x="343" y="-141"/>
      <point x="278" y="-254"/>
      <point x="278" y="-357" type="curve" smooth="yes"/>
      <point x="278" y="-492"/>
      <point x="409" y="-575"/>
      <point x="579" y="-575" type="curve" smooth="yes"/>
      <point x="666" y="-575"/>
      <point x="755" y="-545"/>
      <point x="793" y="-520" type="curve"/>
      <point x="755" y="-358" type="line"/>
      <point x="727" y="-368"/>
      <point x="685" y="-381"/>
      <point x="648" y="-381" type="curve" smooth="yes"/>
      <point x="577" y="-381"/>
      <point x="512" y="-348"/>
      <point x="512" y="-260" type="curve" smooth="yes"/>
      <point x="512" y="-183"/>
      <point x="564" y="-92"/>
      <point x="660" y="0" type="curve"/>
    </contour>
  </outline>
</glyph>
<glyph name="tilde" format="1">
  <advance width="1311"/>
  <unicode hex="02DC"/>
  <outline>
    <contour>
      <point x="671" y="1231" type="move" name="_top"/>
    </contour>
    <contour>
      <point x="877" y="1369" type="curve" smooth="yes"/>
      <point x="1022" y="1369"/>
      <point x="1128" y="1527"/>
      <point x="1155" y="1651" type="curve"/>
      <point x="1063" y="1748" type="line"/>
      <point x="1004" y="1676"/>
      <point x="970" y="1641"/>
      <point x="895" y="1641" type="curve" smooth="yes"/>
      <point x="800" y="1641"/>
      <point x="685" y="1757"/>
      <point x="522" y="1757" type="curve" smooth="yes"/>
      <point x="343" y="1757"/>
      <point x="243" y="1661"/>
      <point x="192" y="1498" type="curve"/>
      <point x="269" y="1404" type="line"/>
      <point x="319" y="1466"/>
      <point x="376" y="1503"/>
      <point x="458" y="1503" type="curve" smooth="yes"/>
      <point x="611" y="1503"/>
      <point x="721" y="1369"/>
    </contour>
  </outline>
</glyph>
<glyph name="uni0307" format="1">
  <advance width="780"/>
  <unicode hex="0307"/>
  <outline>
    <contour>
      <point x="385" y="1231" type="move" name="_top"/>
    </contour>
    <contour>
      <point x="221" y="1498" type="curve" smooth="yes"/>
      <point x="221" y="1406"/>
      <point x="288" y="1282"/>
      <point x="355" y="1282" type="curve" smooth="yes"/>
      <point x="423" y="1282"/>
      <point x="557" y="1328"/>
      <point x="557" y="1421" type="curve" smooth="yes"/>
      <point x="557" y="1513"/>
      <point x="490" y="1637"/>
      <point x="422" y="1637" type="curve" smooth="yes"/>
      <point x="355" y="1637"/>
      <point x="221" y="1590"/>
    </contour>
  </outline>
</glyph>
<glyph name="dblgravecmb" format="1">
  <advance width="1556"/>
  <unicode hex="030F"/>
  <outline>
    <contour>
      <point x="1123" y="1231" type="move" name="_top"/>
    </contour>
    <contour>
      <point x="900" y="1359" type="curve" smooth="yes"/>
      <point x="922" y="1351"/>
      <point x="948" y="1358"/>
      <point x="959" y="1369" type="curve" smooth="yes"/>
      <point x="973" y="1383"/>
      <point x="972" y="1412"/>
      <point x="946" y="1435" type="curve" smooth="yes"/>
      <point x="838" y="1533"/>
      <point x="612" y="1760"/>
      <point x="532" y="1809" type="curve" smooth="yes"/>
      <point x="494" y="1832"/>
      <point x="457" y="1845"/>
      <point x="421" y="1845" type="curve" smooth="yes"/>
      <point x="331" y="1845"/>
      <point x="271" y="1773"/>
      <point x="271" y="1694" type="curve" smooth="yes"/>
      <point x="271" y="1637"/>
      <point x="302" y="1576"/>
      <point x="372" y="1538" type="curve" smooth="yes"/>
      <point x="449" y="1495"/>
      <point x="764" y="1400"/>
    </contour>
    <contour>
      <point x="1505" y="1359" type="curve" smooth="yes"/>
      <point x="1528" y="1351"/>
      <point x="1555" y="1358"/>
      <point x="1566" y="1370" type="curve" smooth="yes"/>
      <point x="1578" y="1384"/>
      <point x="1577" y="1412"/>
      <point x="1551" y="1435" type="curve" smooth="yes"/>
      <point x="1444" y="1533"/>
      <point x="1217" y="1760"/>
      <point x="1138" y="1809" type="curve" smooth="yes"/>
      <point x="1100" y="1832"/>
      <point x="1063" y="1845"/>
      <point x="1027" y="1845" type="curve" smooth="yes"/>
      <point x="936" y="1845"/>
      <point x="877" y="1773"/>
      <point x="877" y="1694" type="curve" smooth="yes"/>
      <point x="877" y="1637"/>
      <point x="907" y="1576"/>
      <point x="978" y="1538" type="curve" smooth="yes"/>
      <point x="1055" y="1495"/>
      <point x="1370" y="1400"/>
    </contour>
  </outline>
</glyph>
<glyph name="breveinvertedcomb" format="1">
  <advance width="1191"/>
  <unicode hex="0311"/>
  <outline>
    <contour>
      <point x="694" y="1231" type="move" name="_top"/>
    </contour>
    <contour>
      <point x="290" y="1384" type="curve"/>
      <point x="534" y="1384" type="line"/>
      <point x="534" y="1505"/>
      <point x="583" y="1560"/>
      <point x="692" y="1560" type="curve" smooth="yes"/>
      <point x="800" y="1560"/>
      <point x="850" y="1505"/>
      <point x="850" y="1384" type="curve"/>
      <point x="1094" y="1384" type="line"/>
      <point x="1094" y="1653"/>
      <point x="968" y="1777"/>
      <point x="692" y="1777" type="curve" smooth="yes"/>
      <point x="416" y="1777"/>
      <point x="290" y="1653"/>
    </contour>
  </outline>
</glyph>
<glyph name="commaturnedabovecomb" format="1">
  <advance width="872"/>
  <unicode hex="0312"/>
  <outline>
    <contour>
      <point x="485" y="1231" type="move" name="_top"/>
    </contour>
    <contour>
      <point x="487" y="1371" type="curve" smooth="yes"/>
      <point x="587" y="1371"/>
      <point x="674" y="1449"/>
      <point x="674" y="1556" type="curve" smooth="yes"/>
      <point x="674" y="1678"/>
      <point x="602" y="1744"/>
      <point x="508" y="1752" type="curve"/>
      <point x="512" y="1834"/>
      <point x="575" y="1887"/>
      <point x="654" y="1888" type="curve"/>
      <point x="654" y="1981" type="line"/>
      <point x="457" y="1981"/>
      <point x="290" y="1804"/>
      <point x="290" y="1603" type="curve" smooth="yes"/>
      <point x="290" y="1473"/>
      <point x="356" y="1371"/>
    </contour>
  </outline>
</glyph>
<glyph name="Delta" format="1">
  <advance width="1489"/>
  <unicode hex="0394"/>
  <outline>
    <contour>
      <point x="92" y="0" type="line"/>
      <point x="1426" y="0" type="line"/>
      <point x="849" y="1559" type="line"/>
      <point x="652" y="1559" type="line"/>
    </contour>
    <contour>
      <point x="288" y="210" type="line"/>
      <point x="684" y="1356" type="line"/>
      <point x="1082" y="210" type="line"/>
    </contour>
  </outline>
</glyph>
<glyph name="mu" format="1">
  <advance width="1487"/>
  <unicode hex="03BC"/>
  <outline>
    <contour>
      <point x="875" y="1231" type="line"/>
      <point x="875" y="284" type="line" smooth="yes"/>
      <point x="875" y="234"/>
      <point x="830" y="195"/>
      <point x="737" y="195" type="curve" smooth="yes"/>
      <point x="672" y="195"/>
      <point x="606" y="205"/>
      <point x="604" y="251" type="curve"/>
      <point x="604" y="1231" type="line"/>
      <point x="160" y="1231" type="line"/>
      <point x="160" y="-281" type="line"/>
      <point x="604" y="-281" type="line"/>
      <point x="604" y="-6" type="line"/>
      <point x="702" y="-3"/>
      <point x="845" y="27"/>
      <point x="887" y="122" type="curve"/>
      <point x="917" y="0" type="line"/>
      <point x="1320" y="0" type="line"/>
      <point x="1320" y="1231" type="line"/>
    </contour>
  </outline>
</glyph>
<glyph name="endash" format="1">
  <advance width="1231"/>
  <unicode hex="2013"/>
  <outline>
    <contour>
      <point x="199" y="501" type="line"/>
      <point x="1025" y="501" type="line"/>
      <point x="1025" y="853" type="line"/>
      <point x="199" y="853" type="line"/>
    </contour>
  </outline>
</glyph>
<glyph name="emdash" format="1">
  <advance width="1869"/>
  <unicode hex="2014"/>
  <outline>
    <contour>
      <point x="114" y="501" type="line"/>
      <point x="1745" y="501" type="line"/>
      <point x="1745" y="853" type="line"/>
      <point x="114" y="853" type="line"/>
    </contour>
  </outline>
</glyph>
<glyph name="quoteright" format="1">
  <advance width="831"/>
  <unicode hex="2019"/>
  <outline>
    <contour>
      <point x="245" y="993" type="line"/>
      <point x="368" y="985"/>
      <point x="604" y="1174"/>
      <point x="604" y="1376" type="curve" smooth="yes"/>
      <point x="604" y="1501"/>
      <point x="544" y="1603"/>
      <point x="420" y="1603" type="curve" smooth="yes"/>
      <point x="315" y="1603"/>
      <point x="231" y="1533"/>
      <point x="231" y="1426" type="curve" smooth="yes"/>
      <point x="231" y="1306"/>
      <point x="303" y="1243"/>
      <point x="394" y="1237" type="curve"/>
      <point x="390" y="1150"/>
      <point x="327" y="1089"/>
      <point x="245" y="1088" type="curve"/>
    </contour>
  </outline>
</glyph>
<glyph name="dagger" format="1">
  <advance width="1336"/>
  <unicode hex="2020"/>
  <outline>
    <contour>
      <point x="663" y="6" type="curve" smooth="yes"/>
      <point x="749" y="6"/>
      <point x="823" y="70"/>
      <point x="823" y="196" type="curve" smooth="yes"/>
      <point x="823" y="339"/>
      <point x="780" y="579"/>
      <point x="720" y="984" type="curve"/>
      <point x="831" y="941"/>
      <point x="940" y="898"/>
      <point x="1014" y="898" type="curve" smooth="yes"/>
      <point x="1090" y="898"/>
      <point x="1131" y="956"/>
      <point x="1131" y="1024" type="curve" smooth="yes"/>
      <point x="1131" y="1098"/>
      <point x="1094" y="1160"/>
      <point x="1019" y="1160" type="curve" smooth="yes"/>
      <point x="941" y="1160"/>
      <point x="828" y="1114"/>
      <point x="714" y="1070" type="curve"/>
      <point x="770" y="1223"/>
      <point x="822" y="1353"/>
      <point x="822" y="1435" type="curve" smooth="yes"/>
      <point x="822" y="1550"/>
      <point x="746" y="1602"/>
      <point x="663" y="1602" type="curve" smooth="yes"/>
      <point x="585" y="1602"/>
      <point x="507" y="1552"/>
      <point x="507" y="1437" type="curve" smooth="yes"/>
      <point x="507" y="1351"/>
      <point x="554" y="1223"/>
      <point x="610" y="1075" type="curve"/>
      <point x="487" y="1123"/>
      <point x="399" y="1160"/>
      <point x="311" y="1160" type="curve" smooth="yes"/>
      <point x="241" y="1160"/>
      <point x="203" y="1096"/>
      <point x="203" y="1027" type="curve" smooth="yes"/>
      <point x="203" y="956"/>
      <point x="242" y="898"/>
      <point x="321" y="898" type="curve" smooth="yes"/>
      <point x="399" y="898"/>
      <point x="528" y="951"/>
      <point x="605" y="981" type="curve"/>
      <point x="553" y="625"/>
      <point x="507" y="362"/>
      <point x="507" y="195" type="curve" smooth="yes"/>
      <point x="507" y="71"/>
      <point x="576" y="6"/>
    </contour>
  </outline>
</glyph>
<glyph name="perthousand" format="1">
  <advance width="3721"/>
  <unicode hex="2030"/>
  <outline>
    <component base="percent"/>
    <contour>
      <point x="3163" y="142" type="curve" smooth="yes"/>
      <point x="2921" y="142"/>
      <point x="2753" y="175"/>
      <point x="2749" y="456" type="curve" smooth="yes"/>
      <point x="2748" y="477"/>
      <point x="2748" y="737"/>
      <point x="2748" y="767" type="curve" smooth="yes"/>
      <point x="2748" y="1046"/>
      <point x="2928" y="1079"/>
      <point x="3162" y="1079" type="curve" smooth="yes"/>
      <point x="3403" y="1079"/>
      <point x="3574" y="1045"/>
      <point x="3578" y="765" type="curve" smooth="yes"/>
      <point x="3579" y="744"/>
      <point x="3579" y="484"/>
      <point x="3579" y="455" type="curve" smooth="yes"/>
      <point x="3579" y="181"/>
      <point x="3397" y="142"/>
    </contour>
    <contour>
      <point x="3158" y="330" type="curve" smooth="yes"/>
      <point x="3226" y="330"/>
      <point x="3260" y="335"/>
      <point x="3260" y="403" type="curve" smooth="yes"/>
      <point x="3260" y="812" type="line" smooth="yes"/>
      <point x="3260" y="890"/>
      <point x="3229" y="891"/>
      <point x="3164" y="891" type="curve" smooth="yes"/>
      <point x="3102" y="891"/>
      <point x="3067" y="891"/>
      <point x="3067" y="813" type="curve" smooth="yes"/>
      <point x="3067" y="794"/>
      <point x="3066" y="418"/>
      <point x="3066" y="404" type="curve" smooth="yes"/>
      <point x="3066" y="335"/>
      <point x="3101" y="330"/>
    </contour>
  </outline>
</glyph>
<glyph name="fraction" format="1">
  <advance width="1153"/>
  <unicode hex="2044"/>
  <outline>
    <contour>
      <point x="184" y="0" type="line"/>
      <point x="466" y="0" type="line"/>
      <point x="971" y="1559" type="line"/>
      <point x="636" y="1559" type="line"/>
    </contour>
  </outline>
</glyph>
<glyph name="foursuperior" format="1">
  <advance width="1219"/>
  <unicode hex="2074"/>
  <outline>
    <contour>
      <point x="742" y="497" type="line"/>
      <point x="1043" y="497" type="line"/>
      <point x="1043" y="1147" type="line"/>
      <point x="742" y="1147" type="line"/>
      <point x="742" y="901" type="line"/>
      <point x="526" y="901" type="line"/>
      <point x="526" y="929" type="line"/>
      <point x="754" y="1559" type="line"/>
      <point x="440" y="1559" type="line"/>
      <point x="202" y="925" type="line"/>
      <point x="202" y="689" type="line"/>
      <point x="742" y="689" type="line"/>
    </contour>
  </outline>
</glyph>
<glyph name="product" format="1">
  <advance width="1630"/>
  <unicode hex="220F"/>
  <outline>
    <contour>
      <point x="643" y="1306" type="line"/>
      <point x="988" y="1306" type="line"/>
      <point x="988" y="-92" type="line"/>
      <point x="1465" y="-92" type="line"/>
      <point x="1465" y="1559" type="line"/>
      <point x="166" y="1559" type="line"/>
      <point x="166" y="-92" type="line"/>
      <point x="643" y="-92" type="line"/>
    </contour>
  </outline>
</glyph>
<glyph name="summation" format="1">
  <advance width="1380"/>
  <unicode hex="2211"/>
  <outline>
    <contour>
      <point x="171" y="-6" type="line"/>
      <point x="1262" y="-6" type="line"/>
      <point x="1262" y="251" type="line"/>
      <point x="637" y="251" type="line"/>
      <point x="1062" y="717" type="line"/>
      <point x="1062" y="814" type="line"/>
      <point x="627" y="1313" type="line"/>
      <point x="1230" y="1313" type="line"/>
      <point x="1230" y="1559" type="line"/>
      <point x="171" y="1559" type="line"/>
      <point x="171" y="1311" type="line"/>
      <point x="623" y="801" type="line"/>
      <point x="171" y="270" type="line"/>
    </contour>
  </outline>
</glyph>
<glyph name="minus" format="1">
  <advance width="1317"/>
  <unicode hex="2212"/>
  <outline>
    <contour>
      <point x="142" y="625" type="line"/>
      <point x="1175" y="625" type="line"/>
      <point x="1175" y="829" type="line"/>
      <point x="142" y="829" type="line"/>
    </contour>
  </outline>
</glyph>
<glyph name="uni2215" format="1">
  <advance width="960"/>
  <unicode hex="2215"/>
  <outline>
    <contour>
      <point x="166" y="0" type="line"/>
      <point x="502" y="0" type="line"/>
      <point x="942" y="1548" type="line"/>
      <point x="606" y="1548" type="line"/>
    </contour>
  </outline>
</glyph>
<glyph name="infinity" format="1">
  <advance width="1747"/>
  <unicode hex="221E"/>
  <outline>
    <contour>
      <point x="1243" y="296" type="curve" smooth="yes"/>
      <point x="1500" y="295"/>
      <point x="1629" y="518"/>
      <point x="1629" y="738" type="curve" smooth="yes"/>
      <point x="1629" y="952"/>
      <point x="1507" y="1164"/>
      <point x="1259" y="1170" type="curve" smooth="yes"/>
      <point x="1113" y="1173"/>
      <point x="951" y="1084"/>
      <point x="860" y="953" type="curve"/>
      <point x="798" y="1074"/>
      <point x="653" y="1159"/>
      <point x="507" y="1159" type="curve" smooth="yes"/>
      <point x="243" y="1159"/>
      <point x="111" y="945"/>
      <point x="111" y="732" type="curve" smooth="yes"/>
      <point x="111" y="516"/>
      <point x="244" y="300"/>
      <point x="509" y="300" type="curve" smooth="yes"/>
      <point x="651" y="300"/>
      <point x="786" y="395"/>
      <point x="833" y="533" type="curve"/>
      <point x="908" y="393"/>
      <point x="1075" y="296"/>
    </contour>
    <contour>
      <point x="507" y="516" type="curve" smooth="yes"/>
      <point x="366" y="516"/>
      <point x="296" y="622"/>
      <point x="296" y="729" type="curve" smooth="yes"/>
      <point x="296" y="834"/>
      <point x="365" y="939"/>
      <point x="503" y="939" type="curve" smooth="yes"/>
      <point x="607" y="939"/>
      <point x="717" y="836"/>
      <point x="769" y="689" type="curve"/>
      <point x="713" y="587"/>
      <point x="605" y="516"/>
    </contour>
    <contour>
      <point x="1239" y="509" type="curve" smooth="yes"/>
      <point x="1109" y="509"/>
      <point x="982" y="632"/>
      <point x="927" y="809" type="curve"/>
      <point x="987" y="889"/>
      <point x="1102" y="942"/>
      <point x="1213" y="942" type="curve" smooth="yes"/>
      <point x="1300" y="942"/>
      <point x="1444" y="894"/>
      <point x="1444" y="719" type="curve" smooth="yes"/>
      <point x="1444" y="612"/>
      <point x="1376" y="509"/>
    </contour>
  </outline>
</glyph>
<glyph name="approxequal" format="1">
  <advance width="1293"/>
  <unicode hex="2248"/>
  <outline>
    <contour>
      <point x="962" y="764" type="curve" smooth="yes"/>
      <point x="1095" y="752"/>
      <point x="1151" y="815"/>
      <point x="1154" y="1053" type="curve"/>
      <point x="1008" y="1053" type="line"/>
      <point x="1003" y="974"/>
      <point x="971" y="948"/>
      <point x="918" y="948" type="curve" smooth="yes"/>
      <point x="811" y="948"/>
      <point x="617" y="1048"/>
      <point x="392" y="1068" type="curve" smooth="yes"/>
      <point x="268" y="1080"/>
      <point x="179" y="1011"/>
      <point x="174" y="771" type="curve"/>
      <point x="325" y="771" type="line"/>
      <point x="324" y="856"/>
      <point x="358" y="885"/>
      <point x="417" y="885" type="curve" smooth="yes"/>
      <point x="532" y="885"/>
      <point x="781" y="780"/>
    </contour>
    <contour>
      <point x="946" y="326" type="curve" smooth="yes"/>
      <point x="1078" y="314"/>
      <point x="1134" y="377"/>
      <point x="1137" y="614" type="curve"/>
      <point x="992" y="614" type="line"/>
      <point x="987" y="535"/>
      <point x="955" y="509"/>
      <point x="902" y="509" type="curve" smooth="yes"/>
      <point x="795" y="509"/>
      <point x="601" y="609"/>
      <point x="376" y="629" type="curve" smooth="yes"/>
      <point x="251" y="641"/>
      <point x="163" y="572"/>
      <point x="158" y="333" type="curve"/>
      <point x="309" y="333" type="line"/>
      <point x="308" y="418"/>
      <point x="342" y="447"/>
      <point x="401" y="447" type="curve" smooth="yes"/>
      <point x="516" y="447"/>
      <point x="764" y="342"/>
    </contour>
  </outline>
</glyph>
<glyph name="notequal" format="1">
  <advance width="1043"/>
  <unicode hex="2260"/>
  <outline>
    <contour>
      <point x="295" y="174" type="line"/>
      <point x="474" y="174" type="line"/>
      <point x="558" y="414" type="line"/>
      <point x="961" y="414" type="line"/>
      <point x="961" y="603" type="line"/>
      <point x="624" y="603" type="line"/>
      <point x="689" y="792" type="line"/>
      <point x="961" y="792" type="line"/>
      <point x="961" y="981" type="line"/>
      <point x="755" y="981" type="line"/>
      <point x="840" y="1224" type="line"/>
      <point x="662" y="1224" type="line"/>
      <point x="577" y="981" type="line"/>
      <point x="126" y="981" type="line"/>
      <point x="126" y="792" type="line"/>
      <point x="511" y="792" type="line"/>
      <point x="445" y="603" type="line"/>
      <point x="126" y="603" type="line"/>
      <point x="126" y="414" type="line"/>
      <point x="379" y="414" type="line"/>
    </contour>
  </outline>
</glyph>
<glyph name="lessequal" format="1">
  <advance width="1254"/>
  <unicode hex="2264"/>
  <outline>
    <contour>
      <point x="1076" y="357" type="line"/>
      <point x="1076" y="690" type="line"/>
      <point x="442" y="832" type="line"/>
      <point x="1076" y="963" type="line"/>
      <point x="1076" y="1312" type="line"/>
      <point x="175" y="999" type="line"/>
      <point x="175" y="659" type="line"/>
    </contour>
    <contour>
      <point x="170" y="0" type="line"/>
      <point x="1080" y="0" type="line"/>
      <point x="1080" y="269" type="line"/>
      <point x="170" y="269" type="line"/>
    </contour>
  </outline>
</glyph>
<glyph name="lozenge" format="1">
  <advance width="1223"/>
  <unicode hex="25CA"/>
  <outline>
    <contour>
      <point x="483" y="0" type="line"/>
      <point x="727" y="0" type="line"/>
      <point x="1140" y="772" type="line"/>
      <point x="727" y="1528" type="line"/>
      <point x="483" y="1528" type="line"/>
      <point x="81" y="772" type="line"/>
    </contour>
    <contour>
      <point x="612" y="268" type="line"/>
      <point x="354" y="772" type="line"/>
      <point x="612" y="1262" type="line"/>
      <point x="874" y="772" type="line"/>
    </contour>
  </outline>
</glyph>
<glyph name="caron.alt" format="1">
  <advance width="1003"/>
  <outline>
    <contour>
      <point x="259" y="1231" type="move" name="_caron.alt"/>
    </contour>
    <contour>
      <point x="508" y="1817" type="curve" smooth="yes"/>
      <point x="508" y="1695"/>
      <point x="581" y="1630"/>
      <point x="675" y="1621" type="curve"/>
      <point x="671" y="1539"/>
      <point x="607" y="1487"/>
      <point x="528" y="1485" type="curve"/>
      <point x="528" y="1393" type="line"/>
      <point x="711" y="1393"/>
      <point x="882" y="1572"/>
      <point x="882" y="1774" type="curve" smooth="yes"/>
      <point x="882" y="1902"/>
      <point x="813" y="1994"/>
      <point x="692" y="1994" type="curve" smooth="yes"/>
      <point x="600" y="1994"/>
      <point x="508" y="1933"/>
    </contour>
  </outline>
</glyph>
<glyph name="foundryicon" format="1">
  <advance width="1378"/>
  <outline>
    <contour>
      <point x="496" y="405" type="line"/>
      <point x="496" y="672" type="line"/>
      <point x="602" y="672" type="line"/>
      <point x="772" y="523" type="line"/>
      <point x="772" y="672" type="line"/>
      <point x="878" y="672" type="line"/>
      <point x="878" y="405" type="line"/>
      <point x="772" y="405" type="line"/>
      <point x="602" y="552" type="line"/>
      <point x="602" y="405" type="line"/>
    </contour>
    <contour>
      <point x="291" y="2" type="line"/>
      <point x="680" y="278" type="line"/>
      <point x="1077" y="2" type="line"/>
      <point x="933" y="461" type="line"/>
      <point x="1324" y="755" type="line"/>
      <point x="839" y="755" type="line"/>
      <point x="680" y="1215" type="line"/>
      <point x="530" y="755" type="line"/>
      <point x="45" y="755" type="line"/>
      <point x="434" y="461" type="line"/>
    </contour>
  </outline>
</glyph>
